<svg width="1500" height="248" viewBox="0 0 1500 248" fill="none" xmlns="http://www.w3.org/2000/svg">
<path d="M207.815 142.116L84.742 234.596C84.2453 235.034 83.7317 235.438 83.2182 235.817C81.7533 236.903 80.2464 237.812 78.6973 238.797C75.3467 240.944 71.8024 242.653 68.1403 243.932C62.6597 245.852 56.9181 246.811 51.1766 246.811C38.077 246.811 24.9859 241.811 14.9929 231.826C5.15146 221.993 0.159161 209.146 -0.000795028 196.257C-0.000795028 195.937 -0.000795028 195.617 -0.000795028 195.297C0.150742 182.408 5.15146 169.561 14.9845 159.728L51.1681 123.545L51.3028 123.41L51.1681 123.275L51.0334 123.41L14.9845 87.361C-5.00151 67.375 -5.00151 34.9798 14.9845 14.9937C24.9775 5.00072 38.077 0 51.1766 0C56.9181 0 62.6597 0.959733 68.1403 2.8792C72.4001 4.36931 76.5001 6.44032 80.3221 9.09221L83.2519 11.2895L207.824 104.661C220.309 114.023 220.309 132.755 207.815 142.108V142.116Z" fill="url(#paint0_linear_890_2395)"/>
<path d="M51.1766 123.545L14.9929 87.3609C-4.99309 67.3749 -4.99309 34.9713 14.9929 14.9937C34.979 -4.99236 67.3826 -4.99236 87.3602 14.9937C107.346 34.9797 107.346 67.3833 87.3602 87.3609L51.1766 123.545Z" fill="url(#paint1_linear_890_2395)"/>
<path d="M102.346 195.912C102.346 209.011 97.3448 222.103 87.3602 232.096C86.03 233.426 84.6494 234.663 83.2182 235.817C73.8818 243.335 62.5334 247.081 51.1766 247.081C38.077 247.081 24.9859 242.089 14.9929 232.096C5.08411 222.195 0.0918124 209.239 -0.000793457 196.257C-0.000793457 195.937 -0.000793457 195.617 -0.000793457 195.297C0.150743 182.408 5.15146 169.561 14.9845 159.728L51.1681 123.545L87.3518 159.728C97.3448 169.721 102.337 182.821 102.337 195.912H102.346Z" fill="url(#paint2_linear_890_2395)"/>
<path d="M384.313 173.611L374.716 154.576H299.857L290.1 173.771C289.3 175.37 288.18 176.01 286.421 176.01H275.704C273.304 176.01 272.185 174.41 273.304 172.171L328.009 65.3208C328.809 63.7212 329.929 63.0814 331.688 63.0814H342.885C344.644 63.0814 345.764 63.7212 346.564 65.3208L401.109 172.171C402.228 174.41 401.109 176.01 398.709 176.01H387.992C386.233 176.01 385.113 175.21 384.313 173.611ZM367.998 141.14L337.446 80.0367L306.575 141.14H367.998Z" fill="#38F9F9"/>
<path d="M421.103 172.803V66.2721C421.103 64.1927 422.223 63.073 424.302 63.073H482.206C515.797 63.073 526.194 75.3896 526.194 101.462V104.022C526.194 128.335 515.797 141.771 482.206 141.771H436.779V172.803C436.779 174.882 435.659 176.002 433.58 176.002H424.302C422.223 176.002 421.103 174.882 421.103 172.803ZM481.246 126.735C503.32 126.735 510.518 120.977 510.518 103.862V101.462C510.518 82.5876 503.32 78.2688 481.246 78.2688H436.779V126.735H481.246Z" fill="#38F9F9"/>
<path d="M550.979 172.803V66.2721C550.979 64.1927 552.098 63.073 554.178 63.073H563.455C565.535 63.073 566.654 64.1927 566.654 66.2721V172.803C566.654 174.882 565.535 176.002 563.455 176.002H554.178C552.098 176.002 550.979 174.882 550.979 172.803Z" fill="#38F9F9"/>
<path d="M642.793 172.803V66.2721C642.793 64.1927 643.913 63.073 645.992 63.073H732.528C734.608 63.073 735.727 64.1927 735.727 66.2721V75.0697C735.727 77.1491 734.608 78.2688 732.528 78.2688H658.469V111.06H708.695C710.774 111.06 711.894 112.179 711.894 114.259V122.576C711.894 124.656 710.774 125.776 708.695 125.776H658.469V172.803C658.469 174.882 657.349 176.002 655.27 176.002H645.992C643.913 176.002 642.793 174.882 642.793 172.803Z" fill="white"/>
<path d="M757.641 137.132V66.2721C757.641 64.1927 758.761 63.073 760.84 63.073H770.118C772.197 63.073 773.317 64.1927 773.317 66.2721V137.612C773.317 155.687 779.555 160.806 795.551 160.806H830.101C846.097 160.806 852.175 155.687 852.175 137.612V66.2721C852.175 64.1927 853.295 63.073 855.374 63.073H864.811C866.891 63.073 868.011 64.1927 868.011 66.2721V137.132C868.011 161.926 857.454 176.002 830.101 176.002H795.551C768.038 176.002 757.641 161.926 757.641 137.132Z" fill="white"/>
<path d="M931.193 172.803V78.2688H892.644C890.564 78.2688 889.445 77.1491 889.445 75.0697V66.2721C889.445 64.1927 890.564 63.073 892.644 63.073H985.578C987.657 63.073 988.777 64.1927 988.777 66.2721V75.0697C988.777 77.1491 987.657 78.2688 985.578 78.2688H947.029V172.803C947.029 174.882 945.909 176.002 943.83 176.002H934.392C932.313 176.002 931.193 174.882 931.193 172.803Z" fill="white"/>
<path d="M1010.21 137.132V66.2721C1010.21 64.1927 1011.33 63.073 1013.41 63.073H1022.69C1024.77 63.073 1025.89 64.1927 1025.89 66.2721V137.612C1025.89 155.687 1032.12 160.806 1048.12 160.806H1082.67C1098.67 160.806 1104.74 155.687 1104.74 137.612V66.2721C1104.74 64.1927 1105.86 63.073 1107.94 63.073H1117.38C1119.46 63.073 1120.58 64.1927 1120.58 66.2721V137.132C1120.58 161.926 1110.02 176.002 1082.67 176.002H1048.12C1020.61 176.002 1010.21 161.926 1010.21 137.132Z" fill="white"/>
<path d="M1229.67 140.811L1251.58 172.163C1253.02 174.242 1252.06 176.002 1249.5 176.002H1238.47C1236.87 176.002 1235.59 175.362 1234.63 173.922L1213.19 142.411H1165.05V172.803C1165.05 174.882 1163.93 176.002 1161.85 176.002H1152.57C1150.49 176.002 1149.37 174.882 1149.37 172.803V66.2721C1149.37 64.1927 1150.49 63.073 1152.57 63.073H1210.48C1244.07 63.073 1255.26 75.3896 1255.26 102.102V104.022C1255.26 124.496 1248.86 136.813 1229.67 140.811ZM1239.43 102.262C1239.43 82.5876 1232.07 78.2688 1209.52 78.2688H1165.05V127.375H1209.52C1231.91 127.375 1239.43 123.216 1239.43 103.862V102.262Z" fill="white"/>
<path d="M1280.06 172.803V66.2721C1280.06 64.1927 1281.18 63.073 1283.26 63.073H1372.35C1374.43 63.073 1375.55 64.1927 1375.55 66.2721V75.0697C1375.55 77.1491 1374.43 78.2688 1372.35 78.2688H1295.73V111.06H1347.88C1349.96 111.06 1351.08 112.179 1351.08 114.259V122.576C1351.08 124.656 1349.96 125.776 1347.88 125.776H1295.73V160.806H1372.35C1374.43 160.806 1375.55 161.926 1375.55 164.005V172.803C1375.55 174.882 1374.43 176.002 1372.35 176.002H1283.26C1281.18 176.002 1280.06 174.882 1280.06 172.803Z" fill="white"/>
<path d="M1392.66 141.131C1392.66 139.052 1393.78 137.932 1395.86 137.932H1405.14C1407.22 137.932 1408.34 139.052 1408.34 141.131C1409.14 156.007 1414.74 160.806 1430.57 160.806H1461.13C1478.56 160.806 1484.48 156.807 1484.48 143.851C1484.48 130.894 1478.56 128.815 1463.37 127.695L1428.33 124.816C1403.7 122.896 1393.46 116.018 1393.46 95.0641C1393.46 74.1099 1403.38 63.073 1432.33 63.073H1460.49C1487.2 63.073 1497.44 73.95 1498.4 97.9433C1498.4 100.023 1497.28 101.142 1495.2 101.142H1485.92C1483.84 101.142 1482.72 100.023 1482.72 97.9433C1481.92 83.0674 1476.32 78.2688 1460.49 78.2688H1432.49C1414.74 78.2688 1408.98 82.1077 1408.98 95.2241C1408.98 107.381 1414.74 109.78 1429.93 111.06L1464.96 113.779C1489.44 115.698 1499.99 123.056 1499.99 143.851C1499.99 164.645 1490.08 176.002 1461.13 176.002H1430.57C1403.86 176.002 1393.62 165.125 1392.66 141.131Z" fill="white"/>
<defs>
<linearGradient id="paint0_linear_890_2395" x1="-1.74347" y1="28.169" x2="136.98" y2="199.49" gradientUnits="userSpaceOnUse">
<stop stop-color="#B3FFFD"/>
<stop offset="0.33" stop-color="#38F9F9"/>
<stop offset="0.51" stop-color="#38F6F8"/>
<stop offset="0.61" stop-color="#3AEEF8"/>
<stop offset="0.69" stop-color="#3EE1F8"/>
<stop offset="0.76" stop-color="#44CDF8"/>
<stop offset="0.83" stop-color="#4BB4F8"/>
<stop offset="0.88" stop-color="#5496F7"/>
<stop offset="0.94" stop-color="#5F71F7"/>
<stop offset="0.98" stop-color="#6B48F7"/>
<stop offset="1" stop-color="#7039F7"/>
</linearGradient>
<linearGradient id="paint1_linear_890_2395" x1="9.95013" y1="21.2319" x2="89.6164" y2="85.492" gradientUnits="userSpaceOnUse">
<stop stop-color="#AEFFFD"/>
<stop offset="0.05" stop-color="#92FDFC"/>
<stop offset="0.15" stop-color="#61FBFA"/>
<stop offset="0.23" stop-color="#43F9F9"/>
<stop offset="0.28" stop-color="#38F9F9"/>
<stop offset="0.39" stop-color="#39F5F8"/>
<stop offset="0.5" stop-color="#3CEAF8"/>
<stop offset="0.6" stop-color="#41D7F8"/>
<stop offset="0.7" stop-color="#49BDF8"/>
<stop offset="0.79" stop-color="#539BF8"/>
<stop offset="0.89" stop-color="#5F72F7"/>
<stop offset="0.98" stop-color="#6D42F7"/>
<stop offset="1" stop-color="#7039F7"/>
</linearGradient>
<linearGradient id="paint2_linear_890_2395" x1="87.3602" y1="159.728" x2="14.9845" y2="232.096" gradientUnits="userSpaceOnUse">
<stop stop-color="#AEFFFD"/>
<stop offset="0.06" stop-color="#92FDFC"/>
<stop offset="0.18" stop-color="#61FBFA"/>
<stop offset="0.27" stop-color="#43F9F9"/>
<stop offset="0.33" stop-color="#38F9F9"/>
<stop offset="0.43" stop-color="#39F5F8"/>
<stop offset="0.53" stop-color="#3CEAF8"/>
<stop offset="0.63" stop-color="#41D7F8"/>
<stop offset="0.72" stop-color="#49BDF8"/>
<stop offset="0.81" stop-color="#539BF8"/>
<stop offset="0.9" stop-color="#5F72F7"/>
<stop offset="0.99" stop-color="#6D42F7"/>
<stop offset="1" stop-color="#7039F7"/>
</linearGradient>
</defs>
</svg>
