<svg width="1500" height="248" viewBox="0 0 1500 248" fill="none" xmlns="http://www.w3.org/2000/svg">
<path d="M87.2605 159.55C97.2421 169.54 102.229 182.616 102.229 195.701C102.229 208.785 97.2421 221.862 87.2605 231.843C85.9318 233.163 84.5527 234.408 83.1232 235.56C81.66 236.645 80.1548 237.545 78.6075 238.537C75.2607 240.681 71.7204 242.388 68.0625 243.666C62.5881 245.592 56.8531 246.551 51.1181 246.551C38.0336 246.551 24.949 241.556 14.9674 231.574C5.76782 222.375 0.806453 210.526 0.0832705 198.476C0.0580432 198.072 0.041225 197.669 0.0328159 197.265C0.0159977 196.853 0.00758857 196.449 0.00758857 196.046C-0.000820538 195.726 -0.000820538 195.407 0.00758857 195.087C0.158952 182.213 5.14555 169.38 14.9674 159.55L48.7383 125.796L51.1097 123.416L53.4895 125.788L87.252 159.55H87.2605Z" fill="#0E0E26"/>
<path d="M3.74125 70.3633C-1.25376 58.0523 -1.25376 44.2025 3.74125 31.8916C4.05239 31.1264 4.38034 30.3611 4.73353 29.6043C6.13785 26.577 7.8533 23.6591 9.8799 20.9009C10.6367 19.8666 11.444 18.8575 12.2933 17.8652C13.1426 16.8813 14.034 15.9143 14.9674 14.9809C15.9008 14.0475 16.8679 13.1561 17.8517 12.3068C25.4956 6.84928 26.9588 6.02519 30.7261 4.23405C31.0624 4.0911 31.3988 3.94814 31.7436 3.81359C31.9202 3.74632 32.0968 3.67905 32.2733 3.60337C32.2902 3.59496 32.307 3.58655 32.3238 3.58655C32.4752 3.53609 32.6265 3.47723 32.7695 3.41837C32.9797 3.33428 33.1815 3.25859 33.3833 3.18291C33.5852 3.10723 33.7954 3.03155 34.0056 2.95587C34.4261 2.8045 34.8549 2.66155 35.2838 2.51859C35.7043 2.37564 36.1331 2.24109 36.562 2.11496C36.9572 1.99723 37.3524 1.88791 37.7477 1.77859C38.7147 1.51791 39.6902 1.28245 40.6656 1.08064C41.6411 0.878817 42.625 0.710635 43.6088 0.559271C44.0713 0.491998 44.5338 0.433134 44.9963 0.374271C47.0313 0.130406 49.0663 0.012679 51.1181 0.012679H51.6563C51.8413 0.00426993 52.0263 0.012679 52.2029 0.012679C52.2534 0.012679 52.2954 0.0210881 52.3459 0.0210881C52.657 0.0210881 52.9681 0.0379063 53.2793 0.0463155C53.3718 0.0547246 53.4727 0.0547246 53.5736 0.0631337C53.8343 0.0715428 54.095 0.088361 54.3472 0.105179C54.4986 0.113588 54.65 0.121997 54.7929 0.138816C54.9695 0.147225 55.1377 0.164043 55.3059 0.172452C55.39 0.180861 55.4572 0.180861 55.5329 0.18927C55.6927 0.206088 55.8609 0.214498 56.0207 0.239725C56.2477 0.256543 56.4832 0.28177 56.7102 0.306998C57.3829 0.38268 58.0557 0.466771 58.7284 0.56768C59.0395 0.609725 59.3591 0.66018 59.6702 0.710635L59.6954 0.719044C60.6625 0.887226 61.6211 1.08064 62.5798 1.29927C62.7059 1.3245 62.8404 1.35814 62.975 1.39177C63.2945 1.46745 63.6057 1.54314 63.9168 1.62723C64.2616 1.71132 64.6148 1.80382 64.9595 1.90473C65.2875 1.99723 65.607 2.08973 65.935 2.19064C65.9602 2.19064 65.977 2.19905 66.0023 2.20746C66.3302 2.30836 66.6666 2.40927 66.9945 2.51859C67.0113 2.51859 67.0198 2.527 67.0366 2.53541C67.2384 2.60268 67.4486 2.66996 67.6589 2.73723C67.6925 2.75405 67.7177 2.76246 67.7514 2.77087C67.8439 2.79609 67.9364 2.82973 68.0289 2.86337C68.0289 2.86337 68.0541 2.87177 68.0709 2.88018C68.1129 2.897 68.1634 2.91382 68.2054 2.93064C68.2475 2.94746 68.2979 2.96427 68.34 2.98109C68.3484 2.98109 68.3568 2.98109 68.3652 2.98109C68.4241 2.99791 68.4829 3.01473 68.5334 3.03996C68.5923 3.06518 68.6427 3.082 68.7016 3.10723C69.0211 3.21655 69.3407 3.33428 69.6602 3.46041C69.8536 3.53609 70.0386 3.61178 70.232 3.68746C70.4843 3.79678 70.745 3.89769 70.9973 4.007C71.0729 4.03223 71.1402 4.06587 71.2159 4.09109C72.0736 4.4611 72.923 4.84791 73.7723 5.26837C73.8143 5.2936 73.8564 5.31042 73.9068 5.33564C73.9573 5.36087 74.0161 5.3861 74.075 5.41973C74.3104 5.53746 74.5459 5.6636 74.7898 5.78973C74.8234 5.79814 74.857 5.81496 74.8907 5.84019C75.0505 5.92428 75.2186 6.01678 75.3868 6.10928C75.9586 6.41201 76.522 6.73155 77.0939 7.06792C77.1359 7.09315 77.178 7.11837 77.2284 7.1436C77.3293 7.21087 77.4302 7.26974 77.5395 7.33701C77.8507 7.52201 78.1534 7.70701 78.4561 7.90042C78.4814 7.91724 78.4982 7.92565 78.515 7.94246C78.6748 8.04337 78.8346 8.14428 78.9943 8.24519C79.0784 8.29565 79.1541 8.35451 79.2466 8.41338C79.5745 8.63201 79.9025 8.85065 80.2305 9.07769C80.2557 9.09451 80.2809 9.11133 80.3061 9.12815L83.0896 11.222C83.0896 11.222 83.1568 11.2725 83.1989 11.3061C83.5941 11.6257 83.9893 11.9536 84.3846 12.29C85.3684 13.1393 86.3355 14.0307 87.2689 14.9641C97.2505 24.9457 102.237 38.0302 102.237 51.1148C102.237 64.1994 97.2505 77.2755 87.2689 87.2571L51.2611 123.265L51.1266 123.13L50.992 123.265L48.7468 121.028L14.9758 87.2571C14.0424 86.3153 13.151 85.3567 12.3017 84.3728C11.4524 83.3805 10.6451 82.363 9.88831 81.3287C7.87012 78.5705 6.15466 75.661 4.74193 72.6337C4.39716 71.8769 4.06921 71.1117 3.74966 70.3464L3.74125 70.3633Z" fill="#0E0E26"/>
<path d="M207.578 141.958L97.0571 225.007C102.616 216.337 105.592 206.246 105.592 195.701C105.592 181.145 99.9246 167.472 89.6403 157.179L55.8693 123.408L89.6319 89.6453C108.09 71.1873 110.512 42.6805 96.8973 21.5904L207.586 104.563C220.057 113.914 220.057 132.616 207.586 141.958H207.578Z" fill="#0E0E26"/>
<path d="M102.228 51.1316C102.228 64.2077 97.2419 77.2923 87.2603 87.2739L51.2525 123.282L51.1179 123.416L48.7466 121.045L14.9756 87.2739C14.0338 86.3321 13.1424 85.3734 12.3015 84.3896C11.4522 83.3973 10.6449 82.3798 9.88808 81.3455C7.85307 78.5873 6.14602 75.6777 4.7417 72.6505C4.39693 71.8936 4.06898 71.1284 3.74943 70.3632C-1.24558 58.0523 -1.24558 44.2025 3.74943 31.8915C4.06057 31.1263 4.38852 30.3611 4.7417 29.6043C6.14602 26.577 7.86148 23.659 9.88808 20.9008C10.6449 19.8665 11.4522 18.8574 12.3015 17.8652C13.1508 16.8813 14.0422 15.9142 14.9756 14.9808C15.909 14.0474 16.876 13.1561 17.8599 12.3067C25.5038 6.84922 26.967 6.02513 30.7342 4.23399C31.0706 4.09104 31.407 3.94808 31.7517 3.81354C31.9283 3.74626 32.1049 3.67899 32.2815 3.60331C32.2983 3.5949 32.3152 3.58649 32.332 3.58649C32.4833 3.53604 32.6347 3.47717 32.7777 3.41831C32.9879 3.33422 33.1897 3.25854 33.3915 3.18285C33.5933 3.10717 33.8036 3.03149 34.0138 2.95581C34.4343 2.80444 34.8631 2.66149 35.292 2.51853C35.7124 2.37558 36.1413 2.24103 36.5702 2.1149C36.9654 1.99717 37.3606 1.88785 37.7559 1.77853C38.7229 1.51785 39.6984 1.2824 40.6738 1.08058C41.6493 0.878758 42.6247 0.702167 43.617 0.559212C44.0795 0.49194 44.542 0.433076 45.0045 0.374212C47.0395 0.121939 49.0745 0.00421143 51.1179 0.00421143C51.3029 0.00421143 51.4795 0.00421143 51.6561 0.0126205C51.8411 0.00421143 52.0261 0.0126205 52.2027 0.0126205C52.5643 0.0126205 52.9175 0.0294387 53.2791 0.046257C53.6322 0.0546661 53.9938 0.0714843 54.347 0.105121C54.6666 0.11353 54.9861 0.138757 55.3057 0.172394C55.3897 0.180803 55.457 0.180803 55.5327 0.189212C55.6925 0.20603 55.8607 0.214439 56.0204 0.239666C56.2475 0.256485 56.4829 0.281712 56.71 0.306939C57.3827 0.382621 58.0554 0.466712 58.7282 0.567621C59.0393 0.609667 59.3588 0.660122 59.67 0.710576C59.6784 0.710576 59.6868 0.718985 59.6952 0.718985C60.6623 0.887167 61.6209 1.08058 62.5795 1.29921C62.7057 1.32444 62.8402 1.35808 62.9748 1.39171C63.2943 1.4674 63.6054 1.54308 63.9166 1.62717C64.2614 1.71126 64.6145 1.80376 64.9593 1.90467C65.2873 1.99717 65.6068 2.08967 65.9348 2.19058C65.96 2.19058 65.9768 2.19899 66.002 2.2074C66.33 2.30831 66.6664 2.40922 66.9943 2.51853C67.0111 2.51853 67.0195 2.52694 67.0364 2.53535C67.2382 2.60262 67.4484 2.6699 67.6586 2.73717C67.6923 2.75399 67.7175 2.7624 67.7511 2.77081C67.8436 2.79603 67.9361 2.82967 68.0286 2.86331C68.0455 2.87172 68.0623 2.87172 68.0707 2.88013C68.1127 2.89694 68.1632 2.91376 68.2052 2.93058C68.2473 2.9474 68.2977 2.96422 68.3398 2.98103C68.3482 2.98103 68.3566 2.98103 68.365 2.98103C68.4239 2.99785 68.4827 3.01467 68.5332 3.0399C68.9116 3.16603 69.29 3.30899 69.66 3.46035C69.8534 3.53604 70.0384 3.61172 70.2318 3.6874C70.4841 3.79672 70.7448 3.89763 70.997 4.00695C71.0727 4.03217 71.14 4.06581 71.2157 4.09104C72.0734 4.46104 72.9227 4.84786 73.7721 5.26831C73.8141 5.29354 73.8561 5.31036 73.9066 5.33558C73.957 5.36081 74.0159 5.38604 74.0748 5.41968C74.3102 5.5374 74.5457 5.66354 74.7896 5.78968C74.8232 5.79808 74.8568 5.8149 74.8905 5.84013C75.0502 5.92422 75.2184 6.01672 75.3866 6.10922C75.9584 6.41195 76.5218 6.7315 77.0936 7.06786C77.1357 7.09309 77.1777 7.11831 77.2282 7.14354C77.3291 7.21081 77.43 7.26968 77.5393 7.33695C77.8505 7.52195 78.1532 7.70695 78.4559 7.90036C78.4812 7.91718 78.498 7.92559 78.5148 7.94241C78.6746 8.04332 78.8343 8.14423 78.9941 8.24513C79.0782 8.29559 79.1539 8.35445 79.2464 8.41332C79.5743 8.63195 79.9023 8.85059 80.2302 9.07764C80.2555 9.09445 80.2807 9.11127 80.3059 9.12809C81.2562 9.79241 82.1812 10.482 83.0893 11.222C83.123 11.2388 83.1566 11.2724 83.1987 11.306C83.5939 11.6256 83.9891 11.9535 84.3843 12.2899C85.3682 13.1392 86.3353 14.0306 87.2687 14.964C97.2503 24.9456 102.237 38.0302 102.237 51.1148L102.228 51.1316Z" fill="#0E0E26"/>
<path d="M102.229 195.701C102.229 208.777 97.2421 221.862 87.2605 231.843C85.9318 233.163 84.5527 234.408 83.1232 235.56C73.7975 243.061 62.4536 246.811 51.1181 246.811C38.0336 246.811 24.949 241.825 14.9674 231.843C14.3703 231.246 13.7901 230.632 13.2267 230.01C11.8224 228.463 10.5274 226.84 9.34169 225.166C9.11465 224.855 8.89601 224.536 8.68578 224.216C7.97101 223.165 7.30669 222.08 6.67601 220.979C6.49101 220.651 6.31442 220.331 6.13783 219.995C5.94442 219.642 5.75942 219.288 5.57442 218.927C5.38942 218.574 5.21282 218.212 5.03623 217.85C4.86805 217.489 4.69987 217.127 4.53169 216.766C4.37191 216.396 4.20373 216.034 4.05237 215.664C3.901 215.294 3.74964 214.933 3.59828 214.563C3.46373 214.226 3.33759 213.881 3.21146 213.545C3.03487 213.083 2.86668 212.612 2.71532 212.141C2.606 211.83 2.49668 211.51 2.40418 211.199C2.29486 210.854 2.18555 210.509 2.08464 210.156C1.99214 209.853 1.90805 209.551 1.82396 209.24C1.75668 208.996 1.68941 208.743 1.63055 208.5C1.56327 208.256 1.50441 208.012 1.44555 207.768C1.25214 206.969 1.07554 206.162 0.924181 205.355C0.856908 205.001 0.789635 204.648 0.730772 204.295C0.663499 203.908 0.604635 203.521 0.545771 203.126C0.436453 202.352 0.335544 201.57 0.259862 200.788C0.217816 200.402 0.18418 200.006 0.158952 199.62C0.125316 199.233 0.100089 198.854 0.0832705 198.476C0.0580432 198.072 0.041225 197.669 0.0328159 197.265C0.0159977 196.853 0.00758857 196.449 0.00758857 196.046C-0.000820538 195.726 -0.000820538 195.407 0.00758857 195.087C0.158952 182.213 5.14555 169.38 14.9674 159.55L48.7383 125.796L51.1097 123.416L53.4895 125.788L87.252 159.55C97.2337 169.54 102.22 182.616 102.22 195.701H102.229Z" fill="#0E0E26"/>
<path d="M384.313 173.611L374.716 154.576H299.857L290.1 173.771C289.3 175.37 288.18 176.01 286.421 176.01H275.704C273.304 176.01 272.185 174.41 273.304 172.171L328.009 65.3208C328.809 63.7212 329.929 63.0814 331.688 63.0814H342.885C344.644 63.0814 345.764 63.7212 346.564 65.3208L401.109 172.171C402.228 174.41 401.109 176.01 398.709 176.01H387.992C386.233 176.01 385.113 175.21 384.313 173.611ZM367.998 141.14L337.446 80.0367L306.575 141.14H367.998Z" fill="#0E0E26"/>
<path d="M421.103 172.803V66.2721C421.103 64.1927 422.223 63.073 424.302 63.073H482.206C515.797 63.073 526.194 75.3896 526.194 101.462V104.022C526.194 128.335 515.797 141.771 482.206 141.771H436.779V172.803C436.779 174.882 435.659 176.002 433.58 176.002H424.302C422.223 176.002 421.103 174.882 421.103 172.803ZM481.246 126.735C503.32 126.735 510.518 120.977 510.518 103.862V101.462C510.518 82.5876 503.32 78.2688 481.246 78.2688H436.779V126.735H481.246Z" fill="#0E0E26"/>
<path d="M550.979 172.803V66.2721C550.979 64.1927 552.098 63.073 554.178 63.073H563.455C565.535 63.073 566.654 64.1927 566.654 66.2721V172.803C566.654 174.882 565.535 176.002 563.455 176.002H554.178C552.098 176.002 550.979 174.882 550.979 172.803Z" fill="#0E0E26"/>
<path d="M642.793 172.803V66.2721C642.793 64.1927 643.913 63.073 645.992 63.073H732.528C734.608 63.073 735.727 64.1927 735.727 66.2721V75.0697C735.727 77.1491 734.608 78.2688 732.528 78.2688H658.469V111.06H708.695C710.774 111.06 711.894 112.179 711.894 114.259V122.576C711.894 124.656 710.774 125.776 708.695 125.776H658.469V172.803C658.469 174.882 657.349 176.002 655.27 176.002H645.992C643.913 176.002 642.793 174.882 642.793 172.803Z" fill="#0E0E26"/>
<path d="M757.641 137.132V66.2721C757.641 64.1927 758.761 63.073 760.84 63.073H770.118C772.197 63.073 773.317 64.1927 773.317 66.2721V137.612C773.317 155.687 779.555 160.806 795.551 160.806H830.101C846.097 160.806 852.175 155.687 852.175 137.612V66.2721C852.175 64.1927 853.295 63.073 855.374 63.073H864.811C866.891 63.073 868.011 64.1927 868.011 66.2721V137.132C868.011 161.926 857.454 176.002 830.101 176.002H795.551C768.038 176.002 757.641 161.926 757.641 137.132Z" fill="#0E0E26"/>
<path d="M931.193 172.803V78.2688H892.644C890.564 78.2688 889.445 77.1491 889.445 75.0697V66.2721C889.445 64.1927 890.564 63.073 892.644 63.073H985.578C987.657 63.073 988.777 64.1927 988.777 66.2721V75.0697C988.777 77.1491 987.657 78.2688 985.578 78.2688H947.029V172.803C947.029 174.882 945.909 176.002 943.83 176.002H934.392C932.313 176.002 931.193 174.882 931.193 172.803Z" fill="#0E0E26"/>
<path d="M1010.21 137.132V66.2721C1010.21 64.1927 1011.33 63.073 1013.41 63.073H1022.69C1024.77 63.073 1025.89 64.1927 1025.89 66.2721V137.612C1025.89 155.687 1032.12 160.806 1048.12 160.806H1082.67C1098.67 160.806 1104.74 155.687 1104.74 137.612V66.2721C1104.74 64.1927 1105.86 63.073 1107.94 63.073H1117.38C1119.46 63.073 1120.58 64.1927 1120.58 66.2721V137.132C1120.58 161.926 1110.02 176.002 1082.67 176.002H1048.12C1020.61 176.002 1010.21 161.926 1010.21 137.132Z" fill="#0E0E26"/>
<path d="M1229.67 140.811L1251.58 172.163C1253.02 174.242 1252.06 176.002 1249.5 176.002H1238.47C1236.87 176.002 1235.59 175.362 1234.63 173.922L1213.19 142.411H1165.05V172.803C1165.05 174.882 1163.93 176.002 1161.85 176.002H1152.57C1150.49 176.002 1149.37 174.882 1149.37 172.803V66.2721C1149.37 64.1927 1150.49 63.073 1152.57 63.073H1210.48C1244.07 63.073 1255.26 75.3896 1255.26 102.102V104.022C1255.26 124.496 1248.86 136.813 1229.67 140.811ZM1239.43 102.262C1239.43 82.5876 1232.07 78.2688 1209.52 78.2688H1165.05V127.375H1209.52C1231.91 127.375 1239.43 123.216 1239.43 103.862V102.262Z" fill="#0E0E26"/>
<path d="M1280.06 172.803V66.2721C1280.06 64.1927 1281.18 63.073 1283.26 63.073H1372.35C1374.43 63.073 1375.55 64.1927 1375.55 66.2721V75.0697C1375.55 77.1491 1374.43 78.2688 1372.35 78.2688H1295.73V111.06H1347.88C1349.96 111.06 1351.08 112.179 1351.08 114.259V122.576C1351.08 124.656 1349.96 125.776 1347.88 125.776H1295.73V160.806H1372.35C1374.43 160.806 1375.55 161.926 1375.55 164.005V172.803C1375.55 174.882 1374.43 176.002 1372.35 176.002H1283.26C1281.18 176.002 1280.06 174.882 1280.06 172.803Z" fill="#0E0E26"/>
<path d="M1392.66 141.131C1392.66 139.052 1393.78 137.932 1395.86 137.932H1405.14C1407.22 137.932 1408.34 139.052 1408.34 141.131C1409.14 156.007 1414.74 160.806 1430.57 160.806H1461.13C1478.56 160.806 1484.48 156.807 1484.48 143.851C1484.48 130.894 1478.56 128.815 1463.37 127.695L1428.33 124.816C1403.7 122.896 1393.46 116.018 1393.46 95.0641C1393.46 74.1099 1403.38 63.073 1432.33 63.073H1460.49C1487.2 63.073 1497.44 73.95 1498.4 97.9433C1498.4 100.023 1497.28 101.142 1495.2 101.142H1485.92C1483.84 101.142 1482.72 100.023 1482.72 97.9433C1481.92 83.0674 1476.32 78.2688 1460.49 78.2688H1432.49C1414.74 78.2688 1408.98 82.1077 1408.98 95.2241C1408.98 107.381 1414.74 109.78 1429.93 111.06L1464.96 113.779C1489.44 115.698 1499.99 123.056 1499.99 143.851C1499.99 164.645 1490.08 176.002 1461.13 176.002H1430.57C1403.86 176.002 1393.62 165.125 1392.66 141.131Z" fill="#0E0E26"/>
</svg>
