<svg width="1500" height="248" viewBox="0 0 1500 248" fill="none" xmlns="http://www.w3.org/2000/svg">
<path d="M384.313 174.254L374.716 155.219H299.857L290.1 174.414C289.3 176.014 288.18 176.653 286.421 176.653H275.704C273.304 176.653 272.185 175.054 273.304 172.814L328.009 65.9641C328.809 64.3645 329.929 63.7247 331.688 63.7247H342.885C344.644 63.7247 345.764 64.3645 346.564 65.9641L401.109 172.814C402.228 175.054 401.109 176.653 398.709 176.653H387.992C386.233 176.653 385.113 175.854 384.313 174.254ZM367.998 141.783L337.446 80.68L306.575 141.783H367.998Z" fill="white"/>
<path d="M421.095 173.454V66.9238C421.095 64.8444 422.214 63.7247 424.294 63.7247H482.198C515.788 63.7247 526.186 76.0413 526.186 102.114V104.673C526.186 128.987 515.788 142.423 482.198 142.423H436.77V173.454C436.77 175.534 435.651 176.653 433.571 176.653H424.294C422.214 176.653 421.095 175.534 421.095 173.454ZM481.238 127.387C503.312 127.387 510.51 121.629 510.51 104.513V102.114C510.51 83.2393 503.312 78.9205 481.238 78.9205H436.77V127.387H481.238Z" fill="white"/>
<path d="M550.979 173.454V66.9238C550.979 64.8444 552.098 63.7247 554.178 63.7247H563.455C565.535 63.7247 566.654 64.8444 566.654 66.9238V173.454C566.654 175.534 565.535 176.653 563.455 176.653H554.178C552.098 176.653 550.979 175.534 550.979 173.454Z" fill="white"/>
<path d="M642.793 173.454V66.9238C642.793 64.8444 643.913 63.7247 645.992 63.7247H732.528C734.608 63.7247 735.727 64.8444 735.727 66.9238V75.7214C735.727 77.8008 734.608 78.9205 732.528 78.9205H658.469V111.711H708.695C710.774 111.711 711.894 112.831 711.894 114.911V123.228C711.894 125.308 710.774 126.427 708.695 126.427H658.469V173.454C658.469 175.534 657.349 176.653 655.27 176.653H645.992C643.913 176.653 642.793 175.534 642.793 173.454Z" fill="white"/>
<path d="M757.641 137.784V66.9238C757.641 64.8444 758.761 63.7247 760.84 63.7247H770.118C772.197 63.7247 773.317 64.8444 773.317 66.9238V138.264C773.317 156.339 779.555 161.458 795.551 161.458H830.101C846.097 161.458 852.175 156.339 852.175 138.264V66.9238C852.175 64.8444 853.295 63.7247 855.374 63.7247H864.811C866.891 63.7247 868.011 64.8444 868.011 66.9238V137.784C868.011 162.577 857.454 176.653 830.101 176.653H795.551C768.038 176.653 757.641 162.577 757.641 137.784Z" fill="white"/>
<path d="M931.193 173.454V78.9205H892.644C890.564 78.9205 889.445 77.8008 889.445 75.7214V66.9238C889.445 64.8444 890.564 63.7247 892.644 63.7247H985.578C987.657 63.7247 988.777 64.8444 988.777 66.9238V75.7214C988.777 77.8008 987.657 78.9205 985.578 78.9205H947.029V173.454C947.029 175.534 945.909 176.653 943.83 176.653H934.392C932.313 176.653 931.193 175.534 931.193 173.454Z" fill="white"/>
<path d="M1010.21 137.784V66.9238C1010.21 64.8444 1011.33 63.7247 1013.41 63.7247H1022.69C1024.77 63.7247 1025.89 64.8444 1025.89 66.9238V138.264C1025.89 156.339 1032.12 161.458 1048.12 161.458H1082.67C1098.67 161.458 1104.74 156.339 1104.74 138.264V66.9238C1104.74 64.8444 1105.86 63.7247 1107.94 63.7247H1117.38C1119.46 63.7247 1120.58 64.8444 1120.58 66.9238V137.784C1120.58 162.577 1110.02 176.653 1082.67 176.653H1048.12C1020.61 176.653 1010.21 162.577 1010.21 137.784Z" fill="white"/>
<path d="M1229.67 141.455L1251.58 172.806C1253.02 174.885 1252.06 176.645 1249.5 176.645H1238.47C1236.87 176.645 1235.59 176.005 1234.63 174.565L1213.19 143.054H1165.05V173.446C1165.05 175.525 1163.93 176.645 1161.85 176.645H1152.57C1150.49 176.645 1149.37 175.525 1149.37 173.446V66.9154C1149.37 64.836 1150.49 63.7163 1152.57 63.7163H1210.48C1244.07 63.7163 1255.26 76.0329 1255.26 102.745V104.665C1255.26 125.139 1248.86 137.456 1229.67 141.455ZM1239.43 102.905C1239.43 83.2309 1232.07 78.9121 1209.52 78.9121H1165.05V128.018H1209.52C1231.91 128.018 1239.43 123.86 1239.43 104.505V102.905Z" fill="white"/>
<path d="M1280.06 173.454V66.9238C1280.06 64.8444 1281.18 63.7247 1283.26 63.7247H1372.35C1374.43 63.7247 1375.55 64.8444 1375.55 66.9238V75.7214C1375.55 77.8008 1374.43 78.9205 1372.35 78.9205H1295.73V111.711H1347.88C1349.96 111.711 1351.08 112.831 1351.08 114.911V123.228C1351.08 125.308 1349.96 126.427 1347.88 126.427H1295.73V161.458H1372.35C1374.43 161.458 1375.55 162.577 1375.55 164.657V173.454C1375.55 175.534 1374.43 176.653 1372.35 176.653H1283.26C1281.18 176.653 1280.06 175.534 1280.06 173.454Z" fill="white"/>
<path d="M1392.66 141.783C1392.66 139.704 1393.78 138.584 1395.86 138.584H1405.14C1407.22 138.584 1408.34 139.704 1408.34 141.783C1409.14 156.659 1414.74 161.458 1430.57 161.458H1461.13C1478.56 161.458 1484.48 157.459 1484.48 144.502C1484.48 131.546 1478.56 129.466 1463.37 128.347L1428.33 125.468C1403.7 123.548 1393.46 116.67 1393.46 95.7158C1393.46 74.7616 1403.38 63.7247 1432.33 63.7247H1460.49C1487.2 63.7247 1497.44 74.6017 1498.4 98.595C1498.4 100.674 1497.28 101.794 1495.2 101.794H1485.92C1483.84 101.794 1482.72 100.674 1482.72 98.595C1481.92 83.7192 1476.32 78.9205 1460.49 78.9205H1432.49C1414.74 78.9205 1408.98 82.7594 1408.98 95.8758C1408.98 108.032 1414.74 110.432 1429.93 111.711L1464.96 114.431C1489.44 116.35 1499.99 123.708 1499.99 144.502C1499.99 165.296 1490.08 176.653 1461.13 176.653H1430.57C1403.86 176.653 1393.62 165.776 1392.66 141.783Z" fill="white"/>
<path d="M87.2605 160.463C97.2421 170.453 102.229 183.529 102.229 196.614C102.229 209.698 97.2421 222.774 87.2605 232.756C85.9318 234.076 84.5527 235.321 83.1232 236.473C81.66 237.557 80.1548 238.457 78.6075 239.45C75.2607 241.594 71.7204 243.301 68.0625 244.579C62.5881 246.505 56.8531 247.463 51.1181 247.463C38.0336 247.463 24.949 242.468 14.9674 232.487C5.76782 223.287 0.806453 211.439 0.0832705 199.389C0.0580432 198.985 0.041225 198.581 0.0328159 198.178C0.0159977 197.766 0.00758857 197.362 0.00758857 196.958C-0.000820538 196.639 -0.000820538 196.319 0.00758857 196C0.158952 183.125 5.14555 170.293 14.9674 160.463L48.7383 126.709L51.1097 124.329L53.4895 126.7L87.252 160.463H87.2605Z" fill="white"/>
<path d="M3.74125 71.2759C-1.25376 58.965 -1.25376 45.1152 3.74125 32.8042C4.05239 32.039 4.38034 31.2738 4.73353 30.517C6.13785 27.4897 7.8533 24.5717 9.8799 21.8135C10.6367 20.7792 11.444 19.7701 12.2933 18.7778C13.1426 17.794 14.034 16.8269 14.9674 15.8935C15.9008 14.9601 16.8679 14.0687 17.8517 13.2194C25.4956 7.76192 26.9588 6.93783 30.7261 5.14669C31.0624 5.00373 31.3988 4.86078 31.7436 4.72623C31.9202 4.65896 32.0968 4.59168 32.2733 4.516C32.2902 4.50759 32.307 4.49918 32.3238 4.49918C32.4752 4.44873 32.6265 4.38987 32.7695 4.331C32.9797 4.24691 33.1815 4.17123 33.3833 4.09555C33.5852 4.01987 33.7954 3.94418 34.0056 3.8685C34.4261 3.71714 34.8549 3.57418 35.2838 3.43123C35.7043 3.28827 36.1331 3.15373 36.562 3.02759C36.9572 2.90986 37.3524 2.80055 37.7477 2.69123C38.7147 2.43054 39.6902 2.19509 40.6656 1.99327C41.6411 1.79145 42.625 1.62327 43.6088 1.47191C44.0713 1.40463 44.5338 1.34577 44.9963 1.28691C47.0313 1.04304 49.0663 0.925315 51.1181 0.925315H51.6563C51.8413 0.916906 52.0263 0.925315 52.2029 0.925315C52.2534 0.925315 52.2954 0.933724 52.3459 0.933724C52.657 0.933724 52.9681 0.950542 53.2793 0.958951C53.3718 0.96736 53.4727 0.96736 53.5736 0.975769C53.8343 0.984179 54.095 1.001 54.3472 1.01781C54.4986 1.02622 54.65 1.03463 54.7929 1.05145C54.9695 1.05986 55.1377 1.07668 55.3059 1.08509C55.39 1.0935 55.4572 1.0935 55.5329 1.10191C55.6927 1.11872 55.8609 1.12713 56.0207 1.15236C56.2477 1.16918 56.4832 1.19441 56.7102 1.21963C57.3829 1.29532 58.0557 1.37941 58.7284 1.48032C59.0395 1.52236 59.3591 1.57282 59.6702 1.62327L59.6954 1.63168C60.6625 1.79986 61.6211 1.99327 62.5798 2.21191C62.7059 2.23714 62.8404 2.27077 62.975 2.30441C63.2945 2.38009 63.6057 2.45577 63.9168 2.53986C64.2616 2.62395 64.6148 2.71645 64.9595 2.81736C65.2875 2.90986 65.607 3.00236 65.935 3.10327C65.9602 3.10327 65.977 3.11168 66.0023 3.12009C66.3302 3.221 66.6666 3.32191 66.9945 3.43123C67.0113 3.43123 67.0198 3.43964 67.0366 3.44805C67.2384 3.51532 67.4486 3.58259 67.6589 3.64986C67.6925 3.66668 67.7177 3.67509 67.7514 3.6835C67.8439 3.70873 67.9364 3.74237 68.0289 3.776C68.0289 3.776 68.0541 3.78441 68.0709 3.79282C68.1129 3.80964 68.1634 3.82646 68.2054 3.84327C68.2475 3.86009 68.2979 3.87691 68.34 3.89373C68.3484 3.89373 68.3568 3.89373 68.3652 3.89373C68.4241 3.91055 68.4829 3.92737 68.5334 3.95259C68.5923 3.97782 68.6427 3.99464 68.7016 4.01987C69.0211 4.12918 69.3407 4.24691 69.6602 4.37305C69.8536 4.44873 70.0386 4.52441 70.232 4.60009C70.4843 4.70941 70.745 4.81032 70.9973 4.91964C71.0729 4.94487 71.1402 4.9785 71.2159 5.00373C72.0736 5.37373 72.923 5.76055 73.7723 6.18101C73.8143 6.20623 73.8564 6.22305 73.9068 6.24828C73.9573 6.27351 74.0161 6.29873 74.075 6.33237C74.3104 6.4501 74.5459 6.57623 74.7898 6.70237C74.8234 6.71078 74.857 6.7276 74.8907 6.75282C75.0505 6.83692 75.2186 6.92942 75.3868 7.02192C75.9586 7.32464 76.522 7.64419 77.0939 7.98055C77.1359 8.00578 77.178 8.03101 77.2284 8.05624C77.3293 8.12351 77.4302 8.18237 77.5395 8.24965C77.8507 8.43465 78.1534 8.61965 78.4561 8.81306C78.4814 8.82987 78.4982 8.83828 78.515 8.8551C78.6748 8.95601 78.8346 9.05692 78.9943 9.15783C79.0784 9.20828 79.1541 9.26715 79.2466 9.32601C79.5745 9.54465 79.9025 9.76328 80.2305 9.99033C80.2557 10.0071 80.2809 10.024 80.3061 10.0408L83.0896 12.1347C83.0896 12.1347 83.1568 12.1851 83.1989 12.2187C83.5941 12.5383 83.9893 12.8662 84.3846 13.2026C85.3684 14.0519 86.3355 14.9433 87.2689 15.8767C97.2505 25.8583 102.237 38.9429 102.237 52.0274C102.237 65.112 97.2505 78.1882 87.2689 88.1698L51.2611 124.178L51.1266 124.043L50.992 124.178L48.7468 121.941L14.9758 88.1698C14.0424 87.228 13.151 86.2693 12.3017 85.2855C11.4524 84.2932 10.6451 83.2757 9.88831 82.2414C7.87012 79.4832 6.15466 76.5736 4.74193 73.5463C4.39716 72.7895 4.06921 72.0243 3.74966 71.2591L3.74125 71.2759Z" fill="white"/>
<path d="M207.578 142.871L97.0571 225.919C102.616 217.25 105.592 207.159 105.592 196.614C105.592 182.057 99.9246 168.384 89.6403 158.091L55.8693 124.321L89.6319 90.5579C108.09 72.1 110.512 43.5931 96.8973 22.5031L207.586 105.476C220.057 114.827 220.057 133.528 207.586 142.871H207.578Z" fill="white"/>
<path d="M102.228 52.0442C102.228 65.1204 97.2419 78.2049 87.2603 88.1865L51.2525 124.194L51.1179 124.329L48.7466 121.958L14.9756 88.1865C14.0338 87.2447 13.1424 86.2861 12.3015 85.3022C11.4522 84.3099 10.6449 83.2924 9.88808 82.2581C7.85307 79.4999 6.14602 76.5904 4.7417 73.5631C4.39693 72.8063 4.06898 72.0411 3.74943 71.2758C-1.24558 58.9649 -1.24558 45.1151 3.74943 32.8042C4.06057 32.039 4.38852 31.2737 4.7417 30.5169C6.14602 27.4896 7.86148 24.5717 9.88808 21.8135C10.6449 20.7792 11.4522 19.7701 12.3015 18.7778C13.1508 17.7939 14.0422 16.8269 14.9756 15.8935C15.909 14.9601 16.876 14.0687 17.8599 13.2194C25.5038 7.76187 26.967 6.93777 30.7342 5.14663C31.0706 5.00368 31.407 4.86073 31.7517 4.72618C31.9283 4.65891 32.1049 4.59163 32.2815 4.51595C32.2983 4.50754 32.3152 4.49913 32.332 4.49913C32.4833 4.44868 32.6347 4.38982 32.7777 4.33095C32.9879 4.24686 33.1897 4.17118 33.3915 4.0955C33.5933 4.01981 33.8036 3.94413 34.0138 3.86845C34.4343 3.71709 34.8631 3.57413 35.292 3.43118C35.7124 3.28822 36.1413 3.15368 36.5702 3.02754C36.9654 2.90981 37.3606 2.80049 37.7559 2.69118C38.7229 2.43049 39.6984 2.19504 40.6738 1.99322C41.6493 1.7914 42.6247 1.61481 43.617 1.47186C44.0795 1.40458 44.542 1.34572 45.0045 1.28686C47.0395 1.03458 49.0745 0.916855 51.1179 0.916855C51.3029 0.916855 51.4795 0.916855 51.6561 0.925264C51.8411 0.916855 52.0261 0.925264 52.2027 0.925264C52.5643 0.925264 52.9175 0.942082 53.2791 0.9589C53.6322 0.967309 53.9938 0.984128 54.347 1.01776C54.6666 1.02617 54.9861 1.0514 55.3057 1.08504C55.3897 1.09345 55.457 1.09345 55.5327 1.10186C55.6925 1.11867 55.8607 1.12708 56.0204 1.15231C56.2475 1.16913 56.4829 1.19436 56.71 1.21958C57.3827 1.29526 58.0554 1.37936 58.7282 1.48026C59.0393 1.52231 59.3588 1.57277 59.67 1.62322C59.6784 1.62322 59.6868 1.63163 59.6952 1.63163C60.6623 1.79981 61.6209 1.99322 62.5795 2.21186C62.7057 2.23708 62.8402 2.27072 62.9748 2.30436C63.2943 2.38004 63.6054 2.45572 63.9166 2.53981C64.2614 2.6239 64.6145 2.7164 64.9593 2.81731C65.2873 2.90981 65.6068 3.00231 65.9348 3.10322C65.96 3.10322 65.9768 3.11163 66.002 3.12004C66.33 3.22095 66.6664 3.32186 66.9943 3.43118C67.0111 3.43118 67.0195 3.43959 67.0364 3.448C67.2382 3.51527 67.4484 3.58254 67.6586 3.64981C67.6923 3.66663 67.7175 3.67504 67.7511 3.68345C67.8436 3.70868 67.9361 3.74231 68.0286 3.77595C68.0455 3.78436 68.0623 3.78436 68.0707 3.79277C68.1127 3.80959 68.1632 3.82641 68.2052 3.84322C68.2473 3.86004 68.2977 3.87686 68.3398 3.89368C68.3482 3.89368 68.3566 3.89368 68.365 3.89368C68.4239 3.9105 68.4827 3.92731 68.5332 3.95254C68.9116 4.07868 69.29 4.22163 69.66 4.373C69.8534 4.44868 70.0384 4.52436 70.2318 4.60004C70.4841 4.70936 70.7448 4.81027 70.997 4.91959C71.0727 4.94482 71.14 4.97845 71.2157 5.00368C72.0734 5.37368 72.9227 5.7605 73.7721 6.18095C73.8141 6.20618 73.8561 6.223 73.9066 6.24823C73.957 6.27345 74.0159 6.29868 74.0748 6.33232C74.3102 6.45005 74.5457 6.57618 74.7896 6.70232C74.8232 6.71073 74.8568 6.72755 74.8905 6.75277C75.0502 6.83686 75.2184 6.92937 75.3866 7.02187C75.9584 7.32459 76.5218 7.64414 77.0936 7.9805C77.1357 8.00573 77.1777 8.03096 77.2282 8.05618C77.3291 8.12346 77.43 8.18232 77.5393 8.24959C77.8505 8.43459 78.1532 8.6196 78.4559 8.813C78.4812 8.82982 78.498 8.83823 78.5148 8.85505C78.6746 8.95596 78.8343 9.05687 78.9941 9.15778C79.0782 9.20823 79.1539 9.2671 79.2464 9.32596C79.5743 9.5446 79.9023 9.76323 80.2302 9.99028C80.2555 10.0071 80.2807 10.0239 80.3059 10.0407C81.2562 10.7051 82.1812 11.3946 83.0893 12.1346C83.123 12.1514 83.1566 12.1851 83.1987 12.2187C83.5939 12.5382 83.9891 12.8662 84.3843 13.2026C85.3682 14.0519 86.3353 14.9432 87.2687 15.8767C97.2503 25.8583 102.237 38.9428 102.237 52.0274L102.228 52.0442Z" fill="white"/>
<path d="M102.229 196.614C102.229 209.69 97.2421 222.774 87.2605 232.756C85.9318 234.076 84.5527 235.321 83.1232 236.473C73.7975 243.974 62.4536 247.724 51.1181 247.724C38.0336 247.724 24.949 242.737 14.9674 232.756C14.3703 232.159 13.7901 231.545 13.2267 230.923C11.8224 229.375 10.5274 227.752 9.34169 226.079C9.11465 225.768 8.89601 225.448 8.68578 225.129C7.97101 224.078 7.30669 222.993 6.67601 221.891C6.49101 221.563 6.31442 221.244 6.13783 220.907C5.94442 220.554 5.75942 220.201 5.57442 219.839C5.38942 219.486 5.21282 219.125 5.03623 218.763C4.86805 218.402 4.69987 218.04 4.53169 217.678C4.37191 217.308 4.20373 216.947 4.05237 216.577C3.901 216.207 3.74964 215.845 3.59828 215.475C3.46373 215.139 3.33759 214.794 3.21146 214.458C3.03487 213.995 2.86668 213.524 2.71532 213.053C2.606 212.742 2.49668 212.423 2.40418 212.112C2.29486 211.767 2.18555 211.422 2.08464 211.069C1.99214 210.766 1.90805 210.463 1.82396 210.152C1.75668 209.908 1.68941 209.656 1.63055 209.412C1.56327 209.168 1.50441 208.924 1.44555 208.681C1.25214 207.882 1.07554 207.074 0.924181 206.267C0.856908 205.914 0.789635 205.561 0.730772 205.208C0.663499 204.821 0.604635 204.434 0.545771 204.039C0.436453 203.265 0.335544 202.483 0.259862 201.701C0.217816 201.314 0.18418 200.919 0.158952 200.532C0.125316 200.145 0.100089 199.767 0.0832705 199.389C0.0580432 198.985 0.041225 198.581 0.0328159 198.178C0.0159977 197.766 0.00758857 197.362 0.00758857 196.958C-0.000820538 196.639 -0.000820538 196.319 0.00758857 196C0.158952 183.125 5.14555 170.293 14.9674 160.463L48.7383 126.709L51.1097 124.329L53.4895 126.7L87.252 160.463C97.2337 170.453 102.22 183.529 102.22 196.614H102.229Z" fill="white"/>
</svg>
