<svg width="500" height="500" viewBox="0 0 500 500" fill="none" xmlns="http://www.w3.org/2000/svg">
<path d="M224.77 292.73C236.64 304.61 242.57 320.16 242.57 335.72C242.57 351.28 236.64 366.83 224.77 378.7C223.19 380.27 221.55 381.75 219.85 383.12C218.11 384.41 216.32 385.48 214.48 386.66C210.5 389.21 206.29 391.24 201.94 392.76C195.43 395.05 188.61 396.19 181.79 396.19C166.23 396.19 150.67 390.25 138.8 378.38C127.86 367.44 121.96 353.35 121.1 339.02C121.07 338.54 121.05 338.06 121.04 337.58C121.02 337.09 121.01 336.61 121.01 336.13C121 335.75 121 335.37 121.01 334.99C121.19 319.68 127.12 304.42 138.8 292.73L178.96 252.59L181.78 249.76L184.61 252.58L224.76 292.73H224.77Z" fill="#0E0E26"/>
<path d="M125.45 186.67C119.51 172.03 119.51 155.56 125.45 140.92C125.82 140.01 126.21 139.1 126.63 138.2C128.3 134.6 130.34 131.13 132.75 127.85C133.65 126.62 134.61 125.42 135.62 124.24C136.63 123.07 137.69 121.92 138.8 120.81C139.91 119.7 141.06 118.64 142.23 117.63C151.32 111.14 153.06 110.16 157.54 108.03C157.94 107.86 158.34 107.69 158.75 107.53C158.96 107.45 159.17 107.37 159.38 107.28C159.4 107.27 159.42 107.26 159.44 107.26C159.62 107.2 159.8 107.13 159.97 107.06C160.22 106.96 160.46 106.87 160.7 106.78C160.94 106.69 161.19 106.6 161.44 106.51C161.94 106.33 162.45 106.16 162.96 105.99C163.46 105.82 163.97 105.66 164.48 105.51C164.95 105.37 165.42 105.24 165.89 105.11C167.04 104.8 168.2 104.52 169.36 104.28C170.52 104.04 171.69 103.84 172.86 103.66C173.41 103.58 173.96 103.51 174.51 103.44C176.93 103.15 179.35 103.01 181.79 103.01H182.43C182.65 103 182.87 103.01 183.08 103.01C183.14 103.01 183.19 103.02 183.25 103.02C183.62 103.02 183.99 103.04 184.36 103.05C184.47 103.06 184.59 103.06 184.71 103.07C185.02 103.08 185.33 103.1 185.63 103.12C185.81 103.13 185.99 103.14 186.16 103.16C186.37 103.17 186.57 103.19 186.77 103.2C186.87 103.21 186.95 103.21 187.04 103.22C187.23 103.24 187.43 103.25 187.62 103.28C187.89 103.3 188.17 103.33 188.44 103.36C189.24 103.45 190.04 103.55 190.84 103.67C191.21 103.72 191.59 103.78 191.96 103.84L191.99 103.85C193.14 104.05 194.28 104.28 195.42 104.54C195.57 104.57 195.73 104.61 195.89 104.65C196.27 104.74 196.64 104.83 197.01 104.93C197.42 105.03 197.84 105.14 198.25 105.26C198.64 105.37 199.02 105.48 199.41 105.6C199.44 105.6 199.46 105.61 199.49 105.62C199.88 105.74 200.28 105.86 200.67 105.99C200.69 105.99 200.7 106 200.72 106.01C200.96 106.09 201.21 106.17 201.46 106.25C201.5 106.27 201.53 106.28 201.57 106.29C201.68 106.32 201.79 106.36 201.9 106.4C201.9 106.4 201.93 106.41 201.95 106.42C202 106.44 202.06 106.46 202.11 106.48C202.16 106.5 202.22 106.52 202.27 106.54C202.28 106.54 202.29 106.54 202.3 106.54C202.37 106.56 202.44 106.58 202.5 106.61C202.57 106.64 202.63 106.66 202.7 106.69C203.08 106.82 203.46 106.96 203.84 107.11C204.07 107.2 204.29 107.29 204.52 107.38C204.82 107.51 205.13 107.63 205.43 107.76C205.52 107.79 205.6 107.83 205.69 107.86C206.71 108.3 207.72 108.76 208.73 109.26C208.78 109.29 208.83 109.31 208.89 109.34C208.95 109.37 209.02 109.4 209.09 109.44C209.37 109.58 209.65 109.73 209.94 109.88C209.98 109.89 210.02 109.91 210.06 109.94C210.25 110.04 210.45 110.15 210.65 110.26C211.33 110.62 212 111 212.68 111.4C212.73 111.43 212.78 111.46 212.84 111.49C212.96 111.57 213.08 111.64 213.21 111.72C213.58 111.94 213.94 112.16 214.3 112.39C214.33 112.41 214.35 112.42 214.37 112.44C214.56 112.56 214.75 112.68 214.94 112.8C215.04 112.86 215.13 112.93 215.24 113C215.63 113.26 216.02 113.52 216.41 113.79C216.44 113.81 216.47 113.83 216.5 113.85L219.81 116.34C219.81 116.34 219.89 116.4 219.94 116.44C220.41 116.82 220.88 117.21 221.35 117.61C222.52 118.62 223.67 119.68 224.78 120.79C236.65 132.66 242.58 148.22 242.58 163.78C242.58 179.34 236.65 194.89 224.78 206.76L181.96 249.58L181.8 249.42L181.64 249.58L178.97 246.92L138.81 206.76C137.7 205.64 136.64 204.5 135.63 203.33C134.62 202.15 133.66 200.94 132.76 199.71C130.36 196.43 128.32 192.97 126.64 189.37C126.23 188.47 125.84 187.56 125.46 186.65L125.45 186.67Z" fill="#0E0E26"/>
<path d="M367.85 271.81L236.42 370.57C243.03 360.26 246.57 348.26 246.57 335.72C246.57 318.41 239.83 302.15 227.6 289.91L187.44 249.75L227.59 209.6C249.54 187.65 252.42 153.75 236.23 128.67L367.86 227.34C382.69 238.46 382.69 260.7 367.86 271.81H367.85Z" fill="#0E0E26"/>
<path d="M242.57 163.8C242.57 179.35 236.64 194.91 224.77 206.78L181.95 249.6L181.79 249.76L178.97 246.94L138.81 206.78C137.69 205.66 136.63 204.52 135.63 203.35C134.62 202.17 133.66 200.96 132.76 199.73C130.34 196.45 128.31 192.99 126.64 189.39C126.23 188.49 125.84 187.58 125.46 186.67C119.52 172.03 119.52 155.56 125.46 140.92C125.83 140.01 126.22 139.1 126.64 138.2C128.31 134.6 130.35 131.13 132.76 127.85C133.66 126.62 134.62 125.42 135.63 124.24C136.64 123.07 137.7 121.92 138.81 120.81C139.92 119.7 141.07 118.64 142.24 117.63C151.33 111.14 153.07 110.16 157.55 108.03C157.95 107.86 158.35 107.69 158.76 107.53C158.97 107.45 159.18 107.37 159.39 107.28C159.41 107.27 159.43 107.26 159.45 107.26C159.63 107.2 159.81 107.13 159.98 107.06C160.23 106.96 160.47 106.87 160.71 106.78C160.95 106.69 161.2 106.6 161.45 106.51C161.95 106.33 162.46 106.16 162.97 105.99C163.47 105.82 163.98 105.66 164.49 105.51C164.96 105.37 165.43 105.24 165.9 105.11C167.05 104.8 168.21 104.52 169.37 104.28C170.53 104.04 171.69 103.83 172.87 103.66C173.42 103.58 173.97 103.51 174.52 103.44C176.94 103.14 179.36 103 181.79 103C182.01 103 182.22 103 182.43 103.01C182.65 103 182.87 103.01 183.08 103.01C183.51 103.01 183.93 103.03 184.36 103.05C184.78 103.06 185.21 103.08 185.63 103.12C186.01 103.13 186.39 103.16 186.77 103.2C186.87 103.21 186.95 103.21 187.04 103.22C187.23 103.24 187.43 103.25 187.62 103.28C187.89 103.3 188.17 103.33 188.44 103.36C189.24 103.45 190.04 103.55 190.84 103.67C191.21 103.72 191.59 103.78 191.96 103.84C191.97 103.84 191.98 103.85 191.99 103.85C193.14 104.05 194.28 104.28 195.42 104.54C195.57 104.57 195.73 104.61 195.89 104.65C196.27 104.74 196.64 104.83 197.01 104.93C197.42 105.03 197.84 105.14 198.25 105.26C198.64 105.37 199.02 105.48 199.41 105.6C199.44 105.6 199.46 105.61 199.49 105.62C199.88 105.74 200.28 105.86 200.67 105.99C200.69 105.99 200.7 106 200.72 106.01C200.96 106.09 201.21 106.17 201.46 106.25C201.5 106.27 201.53 106.28 201.57 106.29C201.68 106.32 201.79 106.36 201.9 106.4C201.92 106.41 201.94 106.41 201.95 106.42C202 106.44 202.06 106.46 202.11 106.48C202.16 106.5 202.22 106.52 202.27 106.54C202.28 106.54 202.29 106.54 202.3 106.54C202.37 106.56 202.44 106.58 202.5 106.61C202.95 106.76 203.4 106.93 203.84 107.11C204.07 107.2 204.29 107.29 204.52 107.38C204.82 107.51 205.13 107.63 205.43 107.76C205.52 107.79 205.6 107.83 205.69 107.86C206.71 108.3 207.72 108.76 208.73 109.26C208.78 109.29 208.83 109.31 208.89 109.34C208.95 109.37 209.02 109.4 209.09 109.44C209.37 109.58 209.65 109.73 209.94 109.88C209.98 109.89 210.02 109.91 210.06 109.94C210.25 110.04 210.45 110.15 210.65 110.26C211.33 110.62 212 111 212.68 111.4C212.73 111.43 212.78 111.46 212.84 111.49C212.96 111.57 213.08 111.64 213.21 111.72C213.58 111.94 213.94 112.16 214.3 112.39C214.33 112.41 214.35 112.42 214.37 112.44C214.56 112.56 214.75 112.68 214.94 112.8C215.04 112.86 215.13 112.93 215.24 113C215.63 113.26 216.02 113.52 216.41 113.79C216.44 113.81 216.47 113.83 216.5 113.85C217.63 114.64 218.73 115.46 219.81 116.34C219.85 116.36 219.89 116.4 219.94 116.44C220.41 116.82 220.88 117.21 221.35 117.61C222.52 118.62 223.67 119.68 224.78 120.79C236.65 132.66 242.58 148.22 242.58 163.78L242.57 163.8Z" fill="#0E0E26"/>
<path d="M242.57 335.72C242.57 351.27 236.64 366.83 224.77 378.7C223.19 380.27 221.55 381.75 219.85 383.12C208.76 392.04 195.27 396.5 181.79 396.5C166.23 396.5 150.67 390.57 138.8 378.7C138.09 377.99 137.4 377.26 136.73 376.52C135.06 374.68 133.52 372.75 132.11 370.76C131.84 370.39 131.58 370.01 131.33 369.63C130.48 368.38 129.69 367.09 128.94 365.78C128.72 365.39 128.51 365.01 128.3 364.61C128.07 364.19 127.85 363.77 127.63 363.34C127.41 362.92 127.2 362.49 126.99 362.06C126.79 361.63 126.59 361.2 126.39 360.77C126.2 360.33 126 359.9 125.82 359.46C125.64 359.02 125.46 358.59 125.28 358.15C125.12 357.75 124.97 357.34 124.82 356.94C124.61 356.39 124.41 355.83 124.23 355.27C124.1 354.9 123.97 354.52 123.86 354.15C123.73 353.74 123.6 353.33 123.48 352.91C123.37 352.55 123.27 352.19 123.17 351.82C123.09 351.53 123.01 351.23 122.94 350.94C122.86 350.65 122.79 350.36 122.72 350.07C122.49 349.12 122.28 348.16 122.1 347.2C122.02 346.78 121.94 346.36 121.87 345.94C121.79 345.48 121.72 345.02 121.65 344.55C121.52 343.63 121.4 342.7 121.31 341.77C121.26 341.31 121.22 340.84 121.19 340.38C121.15 339.92 121.12 339.47 121.1 339.02C121.07 338.54 121.05 338.06 121.04 337.58C121.02 337.09 121.01 336.61 121.01 336.13C121 335.75 121 335.37 121.01 334.99C121.19 319.68 127.12 304.42 138.8 292.73L178.96 252.59L181.78 249.76L184.61 252.58L224.76 292.73C236.63 304.61 242.56 320.16 242.56 335.72H242.57Z" fill="#0E0E26"/>
</svg>
