<svg width="500" height="500" viewBox="0 0 500 500" fill="none" xmlns="http://www.w3.org/2000/svg">
<rect width="500" height="500" fill="#0E0E26"/>
<path d="M367.882 272.065L221.673 381.93C221.083 382.45 220.473 382.93 219.863 383.38C218.123 384.67 216.332 385.75 214.492 386.92C210.512 389.471 206.301 391.501 201.951 393.021C195.44 395.302 188.619 396.442 181.798 396.442C166.236 396.442 150.684 390.501 138.812 378.639C127.121 366.958 121.19 351.696 121 336.384C121 336.004 121 335.624 121 335.244C121.18 319.932 127.121 304.67 138.802 292.988L181.788 250.003L181.948 249.843L181.788 249.682L181.628 249.843L138.802 207.017C115.059 183.274 115.059 144.789 138.802 121.046C150.674 109.174 166.236 103.243 181.788 103.243C188.609 103.243 195.43 104.383 201.941 106.664C207.001 108.434 211.872 110.894 216.412 114.045L219.893 116.655L367.882 227.58C382.714 238.701 382.714 260.954 367.872 272.065H367.882Z" fill="url(#paint0_linear_890_1491)"/>
<path d="M181.798 250.003L138.812 207.017C115.069 183.274 115.069 144.779 138.812 121.046C162.555 97.3026 201.05 97.3026 224.784 121.046C248.527 144.789 248.527 183.284 224.784 207.017L181.798 250.003Z" fill="url(#paint1_linear_890_1491)"/>
<path d="M242.586 335.974C242.586 351.536 236.645 367.088 224.784 378.959C223.203 380.54 221.563 382.01 219.863 383.38C208.771 392.311 195.29 396.762 181.798 396.762C166.236 396.762 150.684 390.831 138.812 378.959C127.041 367.198 121.11 351.806 121 336.384C121 336.004 121 335.624 121 335.244C121.18 319.932 127.121 304.67 138.802 292.988L181.788 250.003L224.774 292.988C236.645 304.86 242.576 320.422 242.576 335.974H242.586Z" fill="url(#paint2_linear_890_1491)"/>
<defs>
<linearGradient id="paint0_linear_890_1491" x1="118.93" y1="136.708" x2="283.731" y2="340.224" gradientUnits="userSpaceOnUse">
<stop stop-color="#B3FFFD"/>
<stop offset="0.33" stop-color="#38F9F9"/>
<stop offset="0.51" stop-color="#38F6F8"/>
<stop offset="0.61" stop-color="#3AEEF8"/>
<stop offset="0.69" stop-color="#3EE1F8"/>
<stop offset="0.76" stop-color="#44CDF8"/>
<stop offset="0.83" stop-color="#4BB4F8"/>
<stop offset="0.88" stop-color="#5496F7"/>
<stop offset="0.94" stop-color="#5F71F7"/>
<stop offset="0.98" stop-color="#6B48F7"/>
<stop offset="1" stop-color="#7039F7"/>
</linearGradient>
<linearGradient id="paint1_linear_890_1491" x1="132.822" y1="128.457" x2="227.464" y2="204.807" gradientUnits="userSpaceOnUse">
<stop stop-color="#AEFFFD"/>
<stop offset="0.05" stop-color="#92FDFC"/>
<stop offset="0.15" stop-color="#61FBFA"/>
<stop offset="0.23" stop-color="#43F9F9"/>
<stop offset="0.28" stop-color="#38F9F9"/>
<stop offset="0.39" stop-color="#39F5F8"/>
<stop offset="0.5" stop-color="#3CEAF8"/>
<stop offset="0.6" stop-color="#41D7F8"/>
<stop offset="0.7" stop-color="#49BDF8"/>
<stop offset="0.79" stop-color="#539BF8"/>
<stop offset="0.89" stop-color="#5F72F7"/>
<stop offset="0.98" stop-color="#6D42F7"/>
<stop offset="1" stop-color="#7039F7"/>
</linearGradient>
<linearGradient id="paint2_linear_890_1491" x1="224.784" y1="292.988" x2="138.802" y2="378.959" gradientUnits="userSpaceOnUse">
<stop stop-color="#AEFFFD"/>
<stop offset="0.06" stop-color="#92FDFC"/>
<stop offset="0.18" stop-color="#61FBFA"/>
<stop offset="0.27" stop-color="#43F9F9"/>
<stop offset="0.33" stop-color="#38F9F9"/>
<stop offset="0.43" stop-color="#39F5F8"/>
<stop offset="0.53" stop-color="#3CEAF8"/>
<stop offset="0.63" stop-color="#41D7F8"/>
<stop offset="0.72" stop-color="#49BDF8"/>
<stop offset="0.81" stop-color="#539BF8"/>
<stop offset="0.9" stop-color="#5F72F7"/>
<stop offset="0.99" stop-color="#6D42F7"/>
<stop offset="1" stop-color="#7039F7"/>
</linearGradient>
</defs>
</svg>
