<svg width="1500" height="248" viewBox="0 0 1500 248" fill="none" xmlns="http://www.w3.org/2000/svg">
<path d="M207.815 142.76L84.742 235.239C84.2453 235.677 83.7317 236.081 83.2182 236.46C81.7533 237.546 80.2464 238.455 78.6973 239.44C75.3467 241.587 71.8024 243.296 68.1403 244.575C62.6597 246.495 56.9181 247.455 51.1766 247.455C38.077 247.455 24.9859 242.454 14.9929 232.469C5.15146 222.636 0.159161 209.789 -0.000795028 196.9C-0.000795028 196.58 -0.000795028 196.261 -0.000795028 195.941C0.150742 183.052 5.15146 170.205 14.9845 160.372L51.1681 124.188L51.3028 124.053L51.1681 123.918L51.0334 124.053L14.9845 88.0042C-5.00151 68.0182 -5.00151 35.623 14.9845 15.637C24.9775 5.64396 38.077 0.651672 51.1681 0.651672C56.9097 0.651672 62.6513 1.61139 68.1318 3.53086C72.3917 5.02097 76.4916 7.09198 80.3137 9.74387L83.2434 11.9412L207.815 105.313C220.3 114.675 220.3 133.406 207.807 142.76H207.815Z" fill="url(#paint0_linear_890_2379)"/>
<path d="M51.1766 124.188L14.9929 88.0043C-4.99309 68.0182 -4.99309 35.6146 14.9929 15.637C34.979 -4.34904 67.3826 -4.34904 87.3602 15.637C107.346 35.623 107.346 68.0266 87.3602 88.0043L51.1766 124.188Z" fill="url(#paint1_linear_890_2379)"/>
<path d="M102.346 196.555C102.346 209.655 97.3448 222.746 87.3602 232.739C86.03 234.069 84.6494 235.306 83.2182 236.46C73.8818 243.978 62.5334 247.724 51.1766 247.724C38.077 247.724 24.9859 242.732 14.9929 232.739C5.08411 222.838 0.0918124 209.882 -0.000793457 196.9C-0.000793457 196.58 -0.000793457 196.261 -0.000793457 195.941C0.150743 183.052 5.15146 170.205 14.9845 160.372L51.1681 124.188L87.3518 160.372C97.3448 170.365 102.337 183.464 102.337 196.555H102.346Z" fill="url(#paint2_linear_890_2379)"/>
<path d="M384.313 174.254L374.716 155.219H299.857L290.1 174.414C289.3 176.013 288.18 176.653 286.421 176.653H275.704C273.304 176.653 272.185 175.054 273.304 172.814L328.009 65.9641C328.809 64.3645 329.929 63.7247 331.688 63.7247H342.885C344.644 63.7247 345.764 64.3645 346.564 65.9641L401.109 172.814C402.228 175.054 401.109 176.653 398.709 176.653H387.992C386.233 176.653 385.113 175.854 384.313 174.254ZM367.998 141.783L337.446 80.68L306.575 141.783H367.998Z" fill="#6365F7"/>
<path d="M421.095 173.454V66.9238C421.095 64.8444 422.214 63.7247 424.294 63.7247H482.198C515.788 63.7247 526.186 76.0413 526.186 102.114V104.673C526.186 128.987 515.788 142.423 482.198 142.423H436.77V173.454C436.77 175.534 435.651 176.653 433.571 176.653H424.294C422.214 176.653 421.095 175.534 421.095 173.454ZM481.238 127.387C503.312 127.387 510.51 121.629 510.51 104.513V102.114C510.51 83.2393 503.312 78.9205 481.238 78.9205H436.77V127.387H481.238Z" fill="#6365F7"/>
<path d="M550.979 173.454V66.9238C550.979 64.8444 552.098 63.7247 554.178 63.7247H563.455C565.535 63.7247 566.654 64.8444 566.654 66.9238V173.454C566.654 175.534 565.535 176.653 563.455 176.653H554.178C552.098 176.653 550.979 175.534 550.979 173.454Z" fill="#6365F7"/>
<path d="M642.793 173.454V66.9238C642.793 64.8444 643.913 63.7247 645.992 63.7247H732.528C734.608 63.7247 735.727 64.8444 735.727 66.9238V75.7213C735.727 77.8008 734.608 78.9205 732.528 78.9205H658.469V111.711H708.695C710.774 111.711 711.894 112.831 711.894 114.91V123.228C711.894 125.308 710.774 126.427 708.695 126.427H658.469V173.454C658.469 175.534 657.349 176.653 655.27 176.653H645.992C643.913 176.653 642.793 175.534 642.793 173.454Z" fill="#0E0E26"/>
<path d="M757.641 137.784V66.9238C757.641 64.8444 758.761 63.7247 760.84 63.7247H770.118C772.197 63.7247 773.317 64.8444 773.317 66.9238V138.264C773.317 156.339 779.555 161.458 795.551 161.458H830.101C846.097 161.458 852.175 156.339 852.175 138.264V66.9238C852.175 64.8444 853.295 63.7247 855.374 63.7247H864.811C866.891 63.7247 868.011 64.8444 868.011 66.9238V137.784C868.011 162.577 857.454 176.653 830.101 176.653H795.551C768.038 176.653 757.641 162.577 757.641 137.784Z" fill="#0E0E26"/>
<path d="M931.193 173.454V78.9205H892.644C890.564 78.9205 889.445 77.8008 889.445 75.7213V66.9238C889.445 64.8444 890.564 63.7247 892.644 63.7247H985.578C987.657 63.7247 988.777 64.8444 988.777 66.9238V75.7213C988.777 77.8008 987.657 78.9205 985.578 78.9205H947.029V173.454C947.029 175.534 945.909 176.653 943.83 176.653H934.392C932.313 176.653 931.193 175.534 931.193 173.454Z" fill="#0E0E26"/>
<path d="M1010.21 137.784V66.9238C1010.21 64.8444 1011.33 63.7247 1013.41 63.7247H1022.69C1024.77 63.7247 1025.89 64.8444 1025.89 66.9238V138.264C1025.89 156.339 1032.12 161.458 1048.12 161.458H1082.67C1098.67 161.458 1104.74 156.339 1104.74 138.264V66.9238C1104.74 64.8444 1105.86 63.7247 1107.94 63.7247H1117.38C1119.46 63.7247 1120.58 64.8444 1120.58 66.9238V137.784C1120.58 162.577 1110.02 176.653 1082.67 176.653H1048.12C1020.61 176.653 1010.21 162.577 1010.21 137.784Z" fill="#0E0E26"/>
<path d="M1229.67 141.455L1251.58 172.806C1253.02 174.885 1252.06 176.645 1249.5 176.645H1238.47C1236.87 176.645 1235.59 176.005 1234.63 174.565L1213.19 143.054H1165.05V173.446C1165.05 175.525 1163.93 176.645 1161.85 176.645H1152.57C1150.49 176.645 1149.37 175.525 1149.37 173.446V66.9154C1149.37 64.836 1150.49 63.7163 1152.57 63.7163H1210.48C1244.07 63.7163 1255.26 76.0329 1255.26 102.745V104.665C1255.26 125.139 1248.86 137.456 1229.67 141.455ZM1239.43 102.905C1239.43 83.2309 1232.07 78.9121 1209.52 78.9121H1165.05V128.018H1209.52C1231.91 128.018 1239.43 123.86 1239.43 104.505V102.905Z" fill="#0E0E26"/>
<path d="M1280.06 173.454V66.9238C1280.06 64.8444 1281.18 63.7247 1283.26 63.7247H1372.35C1374.43 63.7247 1375.55 64.8444 1375.55 66.9238V75.7213C1375.55 77.8008 1374.43 78.9205 1372.35 78.9205H1295.73V111.711H1347.88C1349.96 111.711 1351.08 112.831 1351.08 114.91V123.228C1351.08 125.308 1349.96 126.427 1347.88 126.427H1295.73V161.458H1372.35C1374.43 161.458 1375.55 162.577 1375.55 164.657V173.454C1375.55 175.534 1374.43 176.653 1372.35 176.653H1283.26C1281.18 176.653 1280.06 175.534 1280.06 173.454Z" fill="#0E0E26"/>
<path d="M1392.66 141.783C1392.66 139.704 1393.78 138.584 1395.86 138.584H1405.14C1407.22 138.584 1408.34 139.704 1408.34 141.783C1409.14 156.659 1414.74 161.458 1430.57 161.458H1461.13C1478.56 161.458 1484.48 157.459 1484.48 144.502C1484.48 131.546 1478.56 129.466 1463.37 128.347L1428.33 125.468C1403.7 123.548 1393.46 116.67 1393.46 95.7158C1393.46 74.7616 1403.38 63.7247 1432.33 63.7247H1460.49C1487.2 63.7247 1497.44 74.6017 1498.4 98.595C1498.4 100.674 1497.28 101.794 1495.2 101.794H1485.92C1483.84 101.794 1482.72 100.674 1482.72 98.595C1481.92 83.7191 1476.32 78.9205 1460.49 78.9205H1432.49C1414.74 78.9205 1408.98 82.7594 1408.98 95.8757C1408.98 108.032 1414.74 110.432 1429.93 111.711L1464.96 114.431C1489.44 116.35 1499.99 123.708 1499.99 144.502C1499.99 165.296 1490.08 176.653 1461.13 176.653H1430.57C1403.86 176.653 1393.62 165.776 1392.66 141.783Z" fill="#0E0E26"/>
<defs>
<linearGradient id="paint0_linear_890_2379" x1="-1.74347" y1="28.8207" x2="136.98" y2="200.133" gradientUnits="userSpaceOnUse">
<stop stop-color="#B3FFFD"/>
<stop offset="0.33" stop-color="#38F9F9"/>
<stop offset="0.51" stop-color="#38F6F8"/>
<stop offset="0.61" stop-color="#3AEEF8"/>
<stop offset="0.69" stop-color="#3EE1F8"/>
<stop offset="0.76" stop-color="#44CDF8"/>
<stop offset="0.83" stop-color="#4BB4F8"/>
<stop offset="0.88" stop-color="#5496F7"/>
<stop offset="0.94" stop-color="#5F71F7"/>
<stop offset="0.98" stop-color="#6B48F7"/>
<stop offset="1" stop-color="#7039F7"/>
</linearGradient>
<linearGradient id="paint1_linear_890_2379" x1="9.95013" y1="21.8752" x2="89.6164" y2="86.1437" gradientUnits="userSpaceOnUse">
<stop stop-color="#AEFFFD"/>
<stop offset="0.05" stop-color="#92FDFC"/>
<stop offset="0.15" stop-color="#61FBFA"/>
<stop offset="0.23" stop-color="#43F9F9"/>
<stop offset="0.28" stop-color="#38F9F9"/>
<stop offset="0.39" stop-color="#39F5F8"/>
<stop offset="0.5" stop-color="#3CEAF8"/>
<stop offset="0.6" stop-color="#41D7F8"/>
<stop offset="0.7" stop-color="#49BDF8"/>
<stop offset="0.79" stop-color="#539BF8"/>
<stop offset="0.89" stop-color="#5F72F7"/>
<stop offset="0.98" stop-color="#6D42F7"/>
<stop offset="1" stop-color="#7039F7"/>
</linearGradient>
<linearGradient id="paint2_linear_890_2379" x1="87.3602" y1="160.371" x2="14.9845" y2="232.739" gradientUnits="userSpaceOnUse">
<stop stop-color="#AEFFFD"/>
<stop offset="0.06" stop-color="#92FDFC"/>
<stop offset="0.18" stop-color="#61FBFA"/>
<stop offset="0.27" stop-color="#43F9F9"/>
<stop offset="0.33" stop-color="#38F9F9"/>
<stop offset="0.43" stop-color="#39F5F8"/>
<stop offset="0.53" stop-color="#3CEAF8"/>
<stop offset="0.63" stop-color="#41D7F8"/>
<stop offset="0.72" stop-color="#49BDF8"/>
<stop offset="0.81" stop-color="#539BF8"/>
<stop offset="0.9" stop-color="#5F72F7"/>
<stop offset="0.99" stop-color="#6D42F7"/>
<stop offset="1" stop-color="#7039F7"/>
</linearGradient>
</defs>
</svg>
