<svg width="904" height="382" viewBox="0 0 904 382" fill="none" xmlns="http://www.w3.org/2000/svg">
<path d="M82.0985 380.193L75.0284 366.17H19.8819L12.694 380.31C12.1048 381.489 11.28 381.96 9.98378 381.96H2.08886C0.321347 381.96 -0.50348 380.782 0.321362 379.132L40.6207 300.419C41.2099 299.24 42.0347 298.769 43.3309 298.769H51.5793C52.8755 298.769 53.7004 299.24 54.2895 300.419L94.4711 379.132C95.2959 380.782 94.4711 381.96 92.7036 381.96H84.8087C83.5125 381.96 82.6876 381.371 82.0985 380.193ZM70.0793 356.272L47.573 311.259L24.8309 356.272H70.0793Z" fill="white"/>
<path d="M109.2 379.597V301.119C109.2 299.588 110.025 298.763 111.557 298.763H154.213C178.958 298.763 186.618 307.836 186.618 327.043V328.928C186.618 346.839 178.958 356.737 154.213 356.737H120.748V379.597C120.748 381.129 119.923 381.954 118.391 381.954H111.557C110.025 381.954 109.2 381.129 109.2 379.597ZM153.506 345.661C169.767 345.661 175.07 341.419 175.07 328.81V327.043C175.07 313.138 169.767 309.957 153.506 309.957H120.748V345.661H153.506Z" fill="white"/>
<path d="M204.876 379.597V301.119C204.876 299.588 205.701 298.763 207.232 298.763H214.067C215.599 298.763 216.423 299.588 216.423 301.119V379.597C216.423 381.129 215.599 381.954 214.067 381.954H207.232C205.701 381.954 204.876 381.129 204.876 379.597Z" fill="white"/>
<path d="M272.513 379.597V301.119C272.513 299.588 273.338 298.763 274.869 298.763H338.618C340.15 298.763 340.974 299.588 340.974 301.119V307.6C340.974 309.132 340.15 309.957 338.618 309.957H284.06V334.113H321.06C322.592 334.113 323.417 334.938 323.417 336.47V342.597C323.417 344.129 322.592 344.954 321.06 344.954H284.06V379.597C284.06 381.129 283.236 381.954 281.704 381.954H274.869C273.338 381.954 272.513 381.129 272.513 379.597Z" fill="white"/>
<path d="M357.118 353.32V301.119C357.118 299.588 357.943 298.763 359.475 298.763H366.309C367.841 298.763 368.666 299.588 368.666 301.119V353.674C368.666 366.989 373.261 370.76 385.045 370.76H410.497C422.28 370.76 426.758 366.989 426.758 353.674V301.119C426.758 299.588 427.583 298.763 429.115 298.763H436.067C437.599 298.763 438.424 299.588 438.424 301.119V353.32C438.424 371.584 430.647 381.954 410.497 381.954H385.045C364.777 381.954 357.118 371.584 357.118 353.32Z" fill="white"/>
<path d="M484.968 379.597V309.957H456.57C455.038 309.957 454.213 309.132 454.213 307.6V301.119C454.213 299.588 455.038 298.763 456.57 298.763H525.032C526.564 298.763 527.389 299.588 527.389 301.119V307.6C527.389 309.132 526.564 309.957 525.032 309.957H496.634V379.597C496.634 381.129 495.809 381.954 494.277 381.954H487.325C485.793 381.954 484.968 381.129 484.968 379.597Z" fill="white"/>
<path d="M543.178 353.32V301.119C543.178 299.588 544.003 298.763 545.535 298.763H552.369C553.901 298.763 554.726 299.588 554.726 301.119V353.674C554.726 366.989 559.322 370.76 571.105 370.76H596.557C608.341 370.76 612.819 366.989 612.819 353.674V301.119C612.819 299.588 613.643 298.763 615.175 298.763H622.127C623.659 298.763 624.484 299.588 624.484 301.119V353.32C624.484 371.584 616.707 381.954 596.557 381.954H571.105C550.838 381.954 543.178 371.584 543.178 353.32Z" fill="white"/>
<path d="M704.847 356.03L720.991 379.126C722.051 380.658 721.344 381.954 719.459 381.954H711.328C710.15 381.954 709.207 381.482 708.5 380.422L692.71 357.209H657.242V379.597C657.242 381.129 656.417 381.954 654.886 381.954H648.051C646.519 381.954 645.695 381.129 645.695 379.597V301.119C645.695 299.588 646.519 298.763 648.051 298.763H690.707C715.452 298.763 723.701 307.836 723.701 327.514V328.928C723.701 344.011 718.988 353.084 704.847 356.03ZM712.035 327.632C712.035 313.138 706.615 309.957 690 309.957H657.242V346.132H690C706.497 346.132 712.035 343.068 712.035 328.81V327.632Z" fill="white"/>
<path d="M741.965 379.597V301.119C741.965 299.588 742.79 298.763 744.322 298.763H809.956C811.488 298.763 812.312 299.588 812.312 301.119V307.6C812.312 309.132 811.488 309.957 809.956 309.957H753.513V334.113H791.927C793.459 334.113 794.284 334.938 794.284 336.47V342.597C794.284 344.129 793.459 344.954 791.927 344.954H753.513V370.76H809.956C811.488 370.76 812.312 371.584 812.312 373.116V379.597C812.312 381.129 811.488 381.954 809.956 381.954H744.322C742.79 381.954 741.965 381.129 741.965 379.597Z" fill="white"/>
<path d="M824.921 356.266C824.921 354.734 825.745 353.909 827.277 353.909H834.112C835.643 353.909 836.468 354.734 836.468 356.266C837.058 367.225 841.182 370.76 852.847 370.76H875.354C888.198 370.76 892.558 367.814 892.558 358.269C892.558 348.725 888.198 347.193 877.003 346.368L851.198 344.247C833.051 342.833 825.51 337.766 825.51 322.33C825.51 306.893 832.815 298.763 854.144 298.763H874.882C894.561 298.763 902.102 306.775 902.809 324.451C902.809 325.982 901.984 326.807 900.453 326.807H893.618C892.086 326.807 891.261 325.982 891.261 324.451C890.672 313.492 886.548 309.957 874.882 309.957H854.261C841.182 309.957 836.94 312.785 836.94 322.447C836.94 331.403 841.182 333.17 852.376 334.113L878.182 336.116C896.21 337.53 903.988 342.951 903.988 358.269C903.988 373.588 896.682 381.954 875.354 381.954H852.847C833.169 381.954 825.628 373.941 824.921 356.266Z" fill="white"/>
<path d="M430.782 160.987C440.823 171.038 445.84 184.193 445.84 197.356C445.84 210.519 440.823 223.674 430.782 233.716C429.445 235.044 428.058 236.296 426.619 237.455C425.147 238.547 423.633 239.452 422.077 240.45C418.71 242.607 415.148 244.325 411.468 245.611C405.961 247.548 400.191 248.512 394.422 248.512C381.258 248.512 368.095 243.487 358.053 233.445C348.798 224.19 343.807 212.271 343.079 200.148C343.054 199.742 343.037 199.336 343.028 198.93C343.011 198.515 343.003 198.109 343.003 197.703C342.995 197.381 342.995 197.06 343.003 196.738C343.155 183.787 348.172 170.877 358.053 160.987L392.027 127.03L394.413 124.636L396.807 127.021L430.773 160.987H430.782Z" fill="white"/>
<path d="M346.759 71.263C341.734 58.8779 341.734 44.9446 346.759 32.5595C347.072 31.7897 347.402 31.0198 347.757 30.2585C349.17 27.2129 350.896 24.2774 352.935 21.5026C353.696 20.462 354.508 19.4469 355.363 18.4486C356.217 17.4588 357.114 16.4859 358.053 15.5469C358.992 14.6079 359.965 13.7111 360.955 12.8567C368.645 7.3663 370.117 6.53724 373.907 4.73531C374.245 4.59149 374.583 4.44768 374.93 4.31232C375.108 4.24464 375.285 4.17696 375.463 4.10083C375.48 4.09237 375.497 4.08391 375.514 4.08391C375.666 4.03315 375.818 3.97393 375.962 3.91471C376.174 3.83011 376.377 3.75397 376.58 3.67784C376.783 3.6017 376.994 3.52556 377.206 3.44942C377.629 3.29715 378.06 3.15333 378.492 3.00951C378.915 2.8657 379.346 2.73034 379.778 2.60345C380.175 2.48501 380.573 2.37503 380.97 2.26505C381.943 2.0028 382.925 1.76593 383.906 1.56289C384.887 1.35986 385.877 1.19066 386.867 1.03839C387.332 0.970708 387.798 0.91149 388.263 0.852271C390.31 0.606938 392.357 0.488501 394.422 0.488501H394.963C395.149 0.480041 395.335 0.488501 395.513 0.488501C395.564 0.488501 395.606 0.496961 395.657 0.496961C395.97 0.496961 396.283 0.51388 396.596 0.52234C396.689 0.5308 396.79 0.5308 396.892 0.53926C397.154 0.54772 397.416 0.564639 397.67 0.581559C397.822 0.590018 397.975 0.598478 398.118 0.615398C398.296 0.623858 398.465 0.640777 398.634 0.649237C398.719 0.657697 398.787 0.657697 398.863 0.666156C399.024 0.683076 399.193 0.691536 399.354 0.716915C399.582 0.733835 399.819 0.759214 400.047 0.784593C400.724 0.860731 401.401 0.945329 402.078 1.04685C402.391 1.08915 402.712 1.1399 403.025 1.19066L403.05 1.19912C404.023 1.36832 404.988 1.56289 405.952 1.78285C406.079 1.80823 406.214 1.84207 406.35 1.8759C406.671 1.95204 406.984 2.02818 407.297 2.11278C407.644 2.19738 407.999 2.29043 408.346 2.39195C408.676 2.48501 408.998 2.57807 409.328 2.67958C409.353 2.67958 409.37 2.68804 409.395 2.6965C409.725 2.79802 410.064 2.89954 410.394 3.00951C410.41 3.00951 410.419 3.01797 410.436 3.02643C410.639 3.09411 410.85 3.16179 411.062 3.22947C411.096 3.24639 411.121 3.25485 411.155 3.26331C411.248 3.28869 411.341 3.32253 411.434 3.35637C411.434 3.35637 411.459 3.36482 411.476 3.37328C411.519 3.3902 411.569 3.40712 411.612 3.42404C411.654 3.44096 411.705 3.45788 411.747 3.4748C411.756 3.4748 411.764 3.4748 411.773 3.4748C411.832 3.49172 411.891 3.50864 411.942 3.53402C412.001 3.5594 412.052 3.57632 412.111 3.6017C412.432 3.71168 412.754 3.83011 413.075 3.95701C413.27 4.03315 413.456 4.10929 413.651 4.18542C413.904 4.2954 414.167 4.39692 414.42 4.50689C414.497 4.53227 414.564 4.56611 414.64 4.59149C415.503 4.96372 416.358 5.35287 417.212 5.77586C417.254 5.80124 417.297 5.81816 417.347 5.84354C417.398 5.86892 417.457 5.8943 417.517 5.92814C417.754 6.04657 417.99 6.17347 418.236 6.30037C418.27 6.30883 418.303 6.32575 418.337 6.35113C418.498 6.43572 418.667 6.52878 418.836 6.62184C419.412 6.92639 419.978 7.24786 420.554 7.58625C420.596 7.61163 420.638 7.63701 420.689 7.66239C420.791 7.73007 420.892 7.78929 421.002 7.85697C421.315 8.04308 421.62 8.2292 421.924 8.42377C421.95 8.44069 421.967 8.44915 421.983 8.46607C422.144 8.56759 422.305 8.66911 422.466 8.77062C422.55 8.82138 422.626 8.8806 422.719 8.93982C423.049 9.15977 423.379 9.37973 423.709 9.60814C423.735 9.62506 423.76 9.64198 423.785 9.6589L426.586 11.7654C426.586 11.7654 426.653 11.8161 426.696 11.85C427.093 12.1715 427.491 12.5014 427.888 12.8398C428.878 13.6942 429.851 14.5909 430.79 15.53C440.832 25.5717 445.848 38.7351 445.848 51.8986C445.848 65.062 440.832 78.2169 430.79 88.2587L394.565 124.483L394.43 124.348L394.295 124.483L392.036 122.233L358.061 88.2587C357.122 87.3112 356.226 86.3468 355.371 85.357C354.517 84.3587 353.705 83.3351 352.943 82.2945C350.913 79.5197 349.187 76.5926 347.766 73.5471C347.419 72.7858 347.089 72.0159 346.768 71.2461L346.759 71.263Z" fill="white"/>
<path d="M551.824 143.289L440.637 226.838C446.229 218.116 449.224 207.964 449.224 197.356C449.224 182.712 443.522 168.956 433.176 158.601L399.201 124.627L433.167 90.661C451.736 72.0918 454.173 43.4132 440.477 22.196L551.833 105.669C564.378 115.076 564.378 133.89 551.833 143.289H551.824Z" fill="white"/>
<path d="M445.84 51.9154C445.84 65.0704 440.823 78.2338 430.782 88.2755L394.557 124.5L394.422 124.636L392.036 122.25L358.061 88.2755C357.114 87.328 356.217 86.3636 355.371 85.3738C354.517 84.3756 353.705 83.3519 352.943 82.3114C350.896 79.5366 349.179 76.6095 347.766 73.564C347.419 72.8026 347.089 72.0328 346.768 71.2629C341.743 58.8778 341.743 44.9446 346.768 32.5594C347.081 31.7896 347.411 31.0198 347.766 30.2584C349.179 27.2129 350.904 24.2773 352.943 21.5025C353.705 20.462 354.517 19.4468 355.371 18.4485C356.226 17.4588 357.122 16.4859 358.061 15.5468C359 14.6078 359.973 13.7111 360.963 12.8566C368.653 7.36624 370.125 6.53718 373.915 4.73525C374.253 4.59143 374.592 4.44762 374.939 4.31226C375.116 4.24458 375.294 4.1769 375.472 4.10076C375.489 4.09231 375.505 4.08385 375.522 4.08385C375.675 4.03309 375.827 3.97387 375.971 3.91465C376.182 3.83005 376.385 3.75391 376.588 3.67778C376.791 3.60164 377.003 3.5255 377.214 3.44936C377.637 3.29709 378.069 3.15327 378.5 3.00945C378.923 2.86564 379.355 2.73028 379.786 2.60338C380.184 2.48495 380.581 2.37497 380.979 2.26499C381.952 2.00274 382.933 1.76587 383.914 1.56283C384.896 1.3598 385.877 1.18214 386.875 1.03833C387.341 0.970648 387.806 0.911429 388.271 0.852211C390.319 0.598417 392.366 0.47998 394.422 0.47998C394.608 0.47998 394.785 0.47998 394.963 0.48844C395.149 0.47998 395.335 0.48844 395.513 0.48844C395.877 0.48844 396.232 0.50536 396.596 0.522279C396.951 0.530739 397.315 0.547659 397.67 0.581498C397.992 0.589958 398.313 0.615337 398.634 0.649176C398.719 0.657636 398.787 0.657636 398.863 0.666096C399.024 0.683015 399.193 0.691475 399.354 0.716854C399.582 0.733774 399.819 0.759153 400.047 0.784532C400.724 0.86067 401.401 0.945268 402.078 1.04679C402.391 1.08908 402.712 1.13984 403.025 1.1906C403.034 1.1906 403.042 1.19906 403.051 1.19906C404.023 1.36826 404.988 1.56283 405.952 1.78279C406.079 1.80817 406.214 1.842 406.35 1.87584C406.671 1.95198 406.984 2.02812 407.297 2.11272C407.644 2.19731 407.999 2.29037 408.346 2.39189C408.676 2.48495 408.998 2.578 409.328 2.67952C409.353 2.67952 409.37 2.68798 409.395 2.69644C409.725 2.79796 410.064 2.89948 410.394 3.00945C410.411 3.00945 410.419 3.01791 410.436 3.02637C410.639 3.09405 410.85 3.16173 411.062 3.22941C411.096 3.24633 411.121 3.25479 411.155 3.26325C411.248 3.28863 411.341 3.32247 411.434 3.3563C411.451 3.36476 411.468 3.36476 411.476 3.37322C411.519 3.39014 411.569 3.40706 411.612 3.42398C411.654 3.4409 411.705 3.45782 411.747 3.47474C411.756 3.47474 411.764 3.47474 411.773 3.47474C411.832 3.49166 411.891 3.50858 411.942 3.53396C412.322 3.66086 412.703 3.80467 413.075 3.95695C413.27 4.03309 413.456 4.10922 413.651 4.18536C413.904 4.29534 414.167 4.39686 414.42 4.50683C414.497 4.53221 414.564 4.56605 414.64 4.59143C415.503 4.96366 416.358 5.35281 417.212 5.7758C417.254 5.80118 417.297 5.8181 417.348 5.84348C417.398 5.86886 417.457 5.89424 417.517 5.92808C417.754 6.04651 417.99 6.17341 418.236 6.30031C418.27 6.30877 418.303 6.32569 418.337 6.35107C418.498 6.43566 418.667 6.52872 418.836 6.62178C419.412 6.92633 419.979 7.2478 420.554 7.58619C420.596 7.61157 420.638 7.63695 420.689 7.66233C420.791 7.73001 420.892 7.78923 421.002 7.85691C421.315 8.04302 421.62 8.22914 421.924 8.42371C421.95 8.44063 421.967 8.44909 421.983 8.46601C422.144 8.56753 422.305 8.66904 422.466 8.77056C422.55 8.82132 422.626 8.88054 422.719 8.93976C423.049 9.15971 423.379 9.37966 423.709 9.60808C423.735 9.625 423.76 9.64192 423.785 9.65884C424.741 10.3272 425.672 11.0209 426.586 11.7653C426.619 11.7822 426.653 11.8161 426.696 11.8499C427.093 12.1714 427.491 12.5013 427.888 12.8397C428.878 13.6942 429.851 14.5909 430.79 15.5299C440.832 25.5717 445.849 38.7351 445.849 51.8985L445.84 51.9154Z" fill="white"/>
<path d="M445.84 197.356C445.84 210.511 440.823 223.674 430.782 233.716C429.445 235.044 428.058 236.296 426.619 237.455C417.238 245.001 405.825 248.775 394.422 248.775C381.258 248.775 368.095 243.758 358.053 233.716C357.452 233.115 356.869 232.498 356.302 231.872C354.889 230.315 353.586 228.683 352.393 226.999C352.165 226.686 351.945 226.365 351.733 226.043C351.014 224.986 350.346 223.894 349.712 222.786C349.525 222.456 349.348 222.135 349.17 221.796C348.976 221.441 348.789 221.086 348.603 220.722C348.417 220.367 348.24 220.003 348.062 219.639C347.893 219.275 347.724 218.911 347.554 218.548C347.394 218.175 347.224 217.812 347.072 217.439C346.92 217.067 346.768 216.703 346.615 216.331C346.48 215.993 346.353 215.646 346.226 215.308C346.049 214.842 345.879 214.369 345.727 213.895C345.617 213.582 345.507 213.26 345.414 212.947C345.304 212.6 345.194 212.254 345.093 211.898C344.999 211.594 344.915 211.289 344.83 210.976C344.763 210.731 344.695 210.477 344.636 210.232C344.568 209.986 344.509 209.741 344.45 209.496C344.255 208.692 344.077 207.88 343.925 207.068C343.857 206.712 343.79 206.357 343.731 206.002C343.663 205.613 343.604 205.224 343.544 204.826C343.434 204.048 343.333 203.261 343.257 202.474C343.214 202.085 343.181 201.687 343.155 201.298C343.121 200.909 343.096 200.528 343.079 200.148C343.054 199.742 343.037 199.336 343.028 198.93C343.011 198.515 343.003 198.109 343.003 197.703C342.995 197.381 342.995 197.06 343.003 196.738C343.155 183.787 348.172 170.877 358.053 160.987L392.027 127.03L394.413 124.636L396.807 127.021L430.773 160.987C440.815 171.038 445.832 184.193 445.832 197.356H445.84Z" fill="white"/>
</svg>
