<svg width="904" height="382" viewBox="0 0 904 382" fill="none" xmlns="http://www.w3.org/2000/svg">
<path d="M82.0935 380.193L75.0234 366.17H19.8769L12.689 380.31C12.0998 381.489 11.275 381.96 9.97877 381.96H2.08386C0.316342 381.96 -0.508484 380.782 0.316357 379.132L40.6157 300.419C41.2049 299.24 42.0297 298.769 43.3259 298.769H51.5743C52.8705 298.769 53.6954 299.24 54.2845 300.419L94.4661 379.132C95.2909 380.782 94.4661 381.96 92.6986 381.96H84.8036C83.5075 381.96 82.6826 381.371 82.0935 380.193ZM70.0743 356.272L47.568 311.259L24.8259 356.272H70.0743Z" fill="#0E0E26"/>
<path d="M109.195 379.597V301.119C109.195 299.588 110.02 298.763 111.552 298.763H154.208C178.953 298.763 186.613 307.836 186.613 327.043V328.928C186.613 346.839 178.953 356.737 154.208 356.737H120.743V379.597C120.743 381.129 119.918 381.954 118.386 381.954H111.552C110.02 381.954 109.195 381.129 109.195 379.597ZM153.501 345.661C169.762 345.661 175.065 341.419 175.065 328.81V327.043C175.065 313.138 169.762 309.957 153.501 309.957H120.743V345.661H153.501Z" fill="#0E0E26"/>
<path d="M204.871 379.597V301.119C204.871 299.588 205.696 298.763 207.227 298.763H214.062C215.594 298.763 216.418 299.588 216.418 301.119V379.597C216.418 381.129 215.594 381.954 214.062 381.954H207.227C205.696 381.954 204.871 381.129 204.871 379.597Z" fill="#0E0E26"/>
<path d="M272.508 379.597V301.119C272.508 299.588 273.333 298.763 274.864 298.763H338.613C340.145 298.763 340.969 299.588 340.969 301.119V307.6C340.969 309.132 340.145 309.957 338.613 309.957H284.055V334.113H321.055C322.587 334.113 323.412 334.938 323.412 336.47V342.597C323.412 344.129 322.587 344.954 321.055 344.954H284.055V379.597C284.055 381.129 283.231 381.954 281.699 381.954H274.864C273.333 381.954 272.508 381.129 272.508 379.597Z" fill="#0E0E26"/>
<path d="M357.113 353.32V301.119C357.113 299.588 357.938 298.763 359.47 298.763H366.304C367.836 298.763 368.661 299.588 368.661 301.119V353.674C368.661 366.989 373.256 370.76 385.04 370.76H410.492C422.275 370.76 426.753 366.989 426.753 353.674V301.119C426.753 299.588 427.578 298.763 429.11 298.763H436.062C437.594 298.763 438.419 299.588 438.419 301.119V353.32C438.419 371.584 430.642 381.954 410.492 381.954H385.04C364.772 381.954 357.113 371.584 357.113 353.32Z" fill="#0E0E26"/>
<path d="M484.963 379.597V309.957H456.565C455.033 309.957 454.208 309.132 454.208 307.6V301.119C454.208 299.588 455.033 298.763 456.565 298.763H525.027C526.559 298.763 527.384 299.588 527.384 301.119V307.6C527.384 309.132 526.559 309.957 525.027 309.957H496.629V379.597C496.629 381.129 495.804 381.954 494.272 381.954H487.32C485.788 381.954 484.963 381.129 484.963 379.597Z" fill="#0E0E26"/>
<path d="M543.173 353.32V301.119C543.173 299.588 543.998 298.763 545.53 298.763H552.364C553.896 298.763 554.721 299.588 554.721 301.119V353.674C554.721 366.989 559.317 370.76 571.1 370.76H596.552C608.336 370.76 612.814 366.989 612.814 353.674V301.119C612.814 299.588 613.638 298.763 615.17 298.763H622.122C623.654 298.763 624.479 299.588 624.479 301.119V353.32C624.479 371.584 616.702 381.954 596.552 381.954H571.1C550.833 381.954 543.173 371.584 543.173 353.32Z" fill="#0E0E26"/>
<path d="M704.842 356.03L720.986 379.126C722.046 380.658 721.339 381.954 719.454 381.954H711.323C710.145 381.954 709.202 381.482 708.495 380.422L692.705 357.209H657.237V379.597C657.237 381.129 656.412 381.954 654.881 381.954H648.046C646.514 381.954 645.69 381.129 645.69 379.597V301.119C645.69 299.588 646.514 298.763 648.046 298.763H690.702C715.447 298.763 723.696 307.836 723.696 327.514V328.928C723.696 344.011 718.983 353.084 704.842 356.03ZM712.03 327.632C712.03 313.138 706.61 309.957 689.995 309.957H657.237V346.132H689.995C706.492 346.132 712.03 343.068 712.03 328.81V327.632Z" fill="#0E0E26"/>
<path d="M741.96 379.597V301.119C741.96 299.588 742.785 298.763 744.317 298.763H809.951C811.483 298.763 812.307 299.588 812.307 301.119V307.6C812.307 309.132 811.483 309.957 809.951 309.957H753.508V334.113H791.922C793.454 334.113 794.279 334.938 794.279 336.47V342.597C794.279 344.129 793.454 344.954 791.922 344.954H753.508V370.76H809.951C811.483 370.76 812.307 371.584 812.307 373.116V379.597C812.307 381.129 811.483 381.954 809.951 381.954H744.317C742.785 381.954 741.96 381.129 741.96 379.597Z" fill="#0E0E26"/>
<path d="M824.916 356.266C824.916 354.734 825.74 353.909 827.272 353.909H834.107C835.638 353.909 836.463 354.734 836.463 356.266C837.053 367.225 841.177 370.76 852.842 370.76H875.349C888.193 370.76 892.553 367.814 892.553 358.269C892.553 348.725 888.193 347.193 876.998 346.368L851.193 344.247C833.046 342.833 825.505 337.766 825.505 322.33C825.505 306.893 832.81 298.763 854.139 298.763H874.877C894.556 298.763 902.097 306.775 902.804 324.451C902.804 325.982 901.979 326.807 900.447 326.807H893.613C892.081 326.807 891.256 325.982 891.256 324.451C890.667 313.492 886.543 309.957 874.877 309.957H854.256C841.177 309.957 836.935 312.785 836.935 322.447C836.935 331.403 841.177 333.17 852.371 334.113L878.177 336.116C896.205 337.53 903.982 342.951 903.982 358.269C903.982 373.588 896.677 381.954 875.349 381.954H852.842C833.164 381.954 825.623 373.941 824.916 356.266Z" fill="#0E0E26"/>
<path d="M432.874 160.987C442.916 171.038 447.932 184.193 447.932 197.356C447.932 210.519 442.916 223.674 432.874 233.716C431.537 235.044 430.15 236.296 428.712 237.455C427.24 238.547 425.725 239.452 424.169 240.45C420.802 242.607 417.24 244.325 413.56 245.611C408.053 247.548 402.283 248.512 396.514 248.512C383.35 248.512 370.187 243.487 360.145 233.445C350.89 224.19 345.899 212.271 345.171 200.148C345.146 199.742 345.129 199.336 345.121 198.93C345.104 198.515 345.095 198.109 345.095 197.703C345.087 197.381 345.087 197.06 345.095 196.738C345.247 183.787 350.264 170.877 360.145 160.987L394.12 127.03L396.505 124.636L398.899 127.021L432.865 160.987H432.874Z" fill="#0E0E26"/>
<path d="M348.851 71.263C343.826 58.8779 343.826 44.9446 348.851 32.5595C349.164 31.7897 349.494 31.0198 349.85 30.2585C351.262 27.2129 352.988 24.2774 355.027 21.5026C355.788 20.462 356.601 19.4469 357.455 18.4486C358.309 17.4588 359.206 16.4859 360.145 15.5469C361.084 14.6079 362.057 13.7111 363.047 12.8567C370.737 7.3663 372.209 6.53724 375.999 4.73531C376.337 4.59149 376.676 4.44768 377.022 4.31232C377.2 4.24464 377.378 4.17696 377.555 4.10083C377.572 4.09237 377.589 4.08391 377.606 4.08391C377.758 4.03315 377.911 3.97393 378.055 3.91471C378.266 3.83011 378.469 3.75397 378.672 3.67784C378.875 3.6017 379.087 3.52556 379.298 3.44942C379.721 3.29715 380.153 3.15333 380.584 3.00951C381.007 2.8657 381.438 2.73034 381.87 2.60345C382.267 2.48501 382.665 2.37503 383.063 2.26505C384.036 2.0028 385.017 1.76593 385.998 1.56289C386.98 1.35986 387.969 1.19066 388.959 1.03839C389.424 0.970708 389.89 0.91149 390.355 0.852271C392.402 0.606938 394.45 0.488501 396.514 0.488501H397.055C397.241 0.480041 397.427 0.488501 397.605 0.488501C397.656 0.488501 397.698 0.496961 397.749 0.496961C398.062 0.496961 398.375 0.51388 398.688 0.52234C398.781 0.5308 398.882 0.5308 398.984 0.53926C399.246 0.54772 399.508 0.564639 399.762 0.581559C399.915 0.590018 400.067 0.598478 400.211 0.615398C400.388 0.623858 400.557 0.640777 400.727 0.649237C400.811 0.657697 400.879 0.657697 400.955 0.666156C401.116 0.683076 401.285 0.691536 401.446 0.716915C401.674 0.733835 401.911 0.759214 402.139 0.784593C402.816 0.860731 403.493 0.945329 404.17 1.04685C404.483 1.08915 404.804 1.1399 405.117 1.19066L405.143 1.19912C406.116 1.36832 407.08 1.56289 408.044 1.78285C408.171 1.80823 408.307 1.84207 408.442 1.8759C408.763 1.95204 409.076 2.02818 409.39 2.11278C409.736 2.19738 410.092 2.29043 410.439 2.39195C410.768 2.48501 411.09 2.57807 411.42 2.67958C411.445 2.67958 411.462 2.68804 411.488 2.6965C411.817 2.79802 412.156 2.89954 412.486 3.00951C412.503 3.00951 412.511 3.01797 412.528 3.02643C412.731 3.09411 412.943 3.16179 413.154 3.22947C413.188 3.24639 413.213 3.25485 413.247 3.26331C413.34 3.28869 413.433 3.32253 413.526 3.35637C413.526 3.35637 413.552 3.36482 413.569 3.37328C413.611 3.3902 413.662 3.40712 413.704 3.42404C413.746 3.44096 413.797 3.45788 413.839 3.4748C413.848 3.4748 413.856 3.4748 413.865 3.4748C413.924 3.49172 413.983 3.50864 414.034 3.53402C414.093 3.5594 414.144 3.57632 414.203 3.6017C414.525 3.71168 414.846 3.83011 415.168 3.95701C415.362 4.03315 415.548 4.10929 415.743 4.18542C415.997 4.2954 416.259 4.39692 416.513 4.50689C416.589 4.53227 416.656 4.56611 416.733 4.59149C417.595 4.96372 418.45 5.35287 419.304 5.77586C419.347 5.80124 419.389 5.81816 419.44 5.84354C419.49 5.86892 419.55 5.8943 419.609 5.92814C419.846 6.04657 420.083 6.17347 420.328 6.30037C420.362 6.30883 420.396 6.32575 420.43 6.35113C420.59 6.43572 420.759 6.52878 420.929 6.62184C421.504 6.92639 422.071 7.24786 422.646 7.58625C422.688 7.61163 422.731 7.63701 422.781 7.66239C422.883 7.73007 422.984 7.78929 423.094 7.85697C423.407 8.04308 423.712 8.2292 424.016 8.42377C424.042 8.44069 424.059 8.44915 424.076 8.46607C424.236 8.56759 424.397 8.66911 424.558 8.77062C424.642 8.82138 424.719 8.8806 424.812 8.93982C425.142 9.15977 425.472 9.37973 425.801 9.60814C425.827 9.62506 425.852 9.64198 425.878 9.6589L428.678 11.7654C428.678 11.7654 428.745 11.8161 428.788 11.85C429.185 12.1715 429.583 12.5014 429.981 12.8398C430.97 13.6942 431.943 14.5909 432.882 15.53C442.924 25.5717 447.941 38.7351 447.941 51.8986C447.941 65.062 442.924 78.2169 432.882 88.2587L396.658 124.483L396.522 124.348L396.387 124.483L394.128 122.233L360.154 88.2587C359.215 87.3112 358.318 86.3468 357.463 85.357C356.609 84.3587 355.797 83.3351 355.035 82.2945C353.005 79.5197 351.279 76.5926 349.858 73.5471C349.511 72.7858 349.181 72.0159 348.86 71.2461L348.851 71.263Z" fill="#0E0E26"/>
<path d="M553.916 143.289L442.729 226.838C448.321 218.116 451.316 207.964 451.316 197.356C451.316 182.712 445.614 168.956 435.268 158.601L401.294 124.627L435.26 90.661C453.829 72.0918 456.265 43.4132 442.569 22.196L553.925 105.669C566.471 115.076 566.471 133.89 553.925 143.289H553.916Z" fill="#0E0E26"/>
<path d="M447.932 51.9154C447.932 65.0704 442.916 78.2338 432.874 88.2755L396.649 124.5L396.514 124.636L394.128 122.25L360.154 88.2755C359.206 87.328 358.309 86.3636 357.463 85.3738C356.609 84.3756 355.797 83.3519 355.035 82.3114C352.988 79.5366 351.271 76.6095 349.858 73.564C349.511 72.8026 349.181 72.0328 348.86 71.2629C343.835 58.8778 343.835 44.9446 348.86 32.5594C349.173 31.7896 349.503 31.0198 349.858 30.2584C351.271 27.2129 352.997 24.2773 355.035 21.5025C355.797 20.462 356.609 19.4468 357.463 18.4485C358.318 17.4588 359.215 16.4859 360.154 15.5468C361.093 14.6078 362.066 13.7111 363.055 12.8566C370.745 7.36624 372.217 6.53718 376.007 4.73525C376.346 4.59143 376.684 4.44762 377.031 4.31226C377.209 4.24458 377.386 4.1769 377.564 4.10076C377.581 4.09231 377.598 4.08385 377.615 4.08385C377.767 4.03309 377.919 3.97387 378.063 3.91465C378.274 3.83005 378.478 3.75391 378.681 3.67778C378.884 3.60164 379.095 3.5255 379.307 3.44936C379.73 3.29709 380.161 3.15327 380.592 3.00945C381.015 2.86564 381.447 2.73028 381.878 2.60338C382.276 2.48495 382.674 2.37497 383.071 2.26499C384.044 2.00274 385.025 1.76587 386.007 1.56283C386.988 1.3598 387.969 1.18214 388.968 1.03833C389.433 0.970648 389.898 0.911429 390.363 0.852211C392.411 0.598417 394.458 0.47998 396.514 0.47998C396.7 0.47998 396.878 0.47998 397.055 0.48844C397.241 0.47998 397.427 0.48844 397.605 0.48844C397.969 0.48844 398.324 0.50536 398.688 0.522279C399.043 0.530739 399.407 0.547659 399.762 0.581498C400.084 0.589958 400.405 0.615337 400.727 0.649176C400.811 0.657636 400.879 0.657636 400.955 0.666096C401.116 0.683015 401.285 0.691475 401.446 0.716854C401.674 0.733774 401.911 0.759153 402.14 0.784532C402.816 0.86067 403.493 0.945268 404.17 1.04679C404.483 1.08908 404.804 1.13984 405.117 1.1906C405.126 1.1906 405.134 1.19906 405.143 1.19906C406.116 1.36826 407.08 1.56283 408.044 1.78279C408.171 1.80817 408.307 1.842 408.442 1.87584C408.764 1.95198 409.077 2.02812 409.39 2.11272C409.736 2.19731 410.092 2.29037 410.439 2.39189C410.768 2.48495 411.09 2.578 411.42 2.67952C411.445 2.67952 411.462 2.68798 411.488 2.69644C411.817 2.79796 412.156 2.89948 412.486 3.00945C412.503 3.00945 412.511 3.01791 412.528 3.02637C412.731 3.09405 412.943 3.16173 413.154 3.22941C413.188 3.24633 413.213 3.25479 413.247 3.26325C413.34 3.28863 413.433 3.32247 413.526 3.3563C413.543 3.36476 413.56 3.36476 413.569 3.37322C413.611 3.39014 413.662 3.40706 413.704 3.42398C413.746 3.4409 413.797 3.45782 413.839 3.47474C413.848 3.47474 413.856 3.47474 413.865 3.47474C413.924 3.49166 413.983 3.50858 414.034 3.53396C414.415 3.66086 414.795 3.80467 415.168 3.95695C415.362 4.03309 415.548 4.10922 415.743 4.18536C415.997 4.29534 416.259 4.39686 416.513 4.50683C416.589 4.53221 416.656 4.56605 416.733 4.59143C417.596 4.96366 418.45 5.35281 419.304 5.7758C419.347 5.80118 419.389 5.8181 419.44 5.84348C419.491 5.86886 419.55 5.89424 419.609 5.92808C419.846 6.04651 420.083 6.17341 420.328 6.30031C420.362 6.30877 420.396 6.32569 420.43 6.35107C420.59 6.43566 420.759 6.52872 420.929 6.62178C421.504 6.92633 422.071 7.2478 422.646 7.58619C422.688 7.61157 422.731 7.63695 422.781 7.66233C422.883 7.73001 422.984 7.78923 423.094 7.85691C423.407 8.04302 423.712 8.22914 424.016 8.42371C424.042 8.44063 424.059 8.44909 424.076 8.46601C424.236 8.56753 424.397 8.66904 424.558 8.77056C424.643 8.82132 424.719 8.88054 424.812 8.93976C425.142 9.15971 425.472 9.37966 425.802 9.60808C425.827 9.625 425.852 9.64192 425.878 9.65884C426.834 10.3272 427.764 11.0209 428.678 11.7653C428.712 11.7822 428.746 11.8161 428.788 11.8499C429.185 12.1714 429.583 12.5013 429.981 12.8397C430.97 13.6942 431.943 14.5909 432.882 15.5299C442.924 25.5717 447.941 38.7351 447.941 51.8985L447.932 51.9154Z" fill="#0E0E26"/>
<path d="M447.932 197.356C447.932 210.511 442.916 223.674 432.874 233.716C431.537 235.044 430.15 236.296 428.712 237.455C419.33 245.001 407.918 248.775 396.514 248.775C383.35 248.775 370.187 243.758 360.145 233.716C359.545 233.115 358.961 232.498 358.394 231.872C356.981 230.315 355.678 228.683 354.486 226.999C354.257 226.686 354.037 226.365 353.826 226.043C353.107 224.986 352.438 223.894 351.804 222.786C351.618 222.456 351.44 222.135 351.262 221.796C351.068 221.441 350.882 221.086 350.696 220.722C350.509 220.367 350.332 220.003 350.154 219.639C349.985 219.275 349.816 218.911 349.647 218.548C349.486 218.175 349.317 217.812 349.164 217.439C349.012 217.067 348.86 216.703 348.708 216.331C348.572 215.993 348.445 215.646 348.318 215.308C348.141 214.842 347.972 214.369 347.819 213.895C347.709 213.582 347.599 213.26 347.506 212.947C347.396 212.6 347.286 212.254 347.185 211.898C347.092 211.594 347.007 211.289 346.923 210.976C346.855 210.731 346.787 210.477 346.728 210.232C346.66 209.986 346.601 209.741 346.542 209.496C346.347 208.692 346.17 207.88 346.017 207.068C345.95 206.712 345.882 206.357 345.823 206.002C345.755 205.613 345.696 205.224 345.637 204.826C345.527 204.048 345.425 203.261 345.349 202.474C345.307 202.085 345.273 201.687 345.247 201.298C345.214 200.909 345.188 200.528 345.171 200.148C345.146 199.742 345.129 199.336 345.121 198.93C345.104 198.515 345.095 198.109 345.095 197.703C345.087 197.381 345.087 197.06 345.095 196.738C345.247 183.787 350.264 170.877 360.145 160.987L394.12 127.03L396.505 124.636L398.899 127.021L432.865 160.987C442.907 171.038 447.924 184.193 447.924 197.356H447.932Z" fill="#0E0E26"/>
</svg>
