<svg width="904" height="382" viewBox="0 0 904 382" fill="none" xmlns="http://www.w3.org/2000/svg">
<path d="M551.815 142.97L428.002 236.006C427.502 236.446 426.986 236.852 426.469 237.234C424.995 238.326 423.479 239.241 421.921 240.232C418.55 242.391 414.985 244.111 411.3 245.398C405.787 247.329 400.011 248.295 394.235 248.295C381.056 248.295 367.887 243.264 357.834 233.219C347.933 223.327 342.911 210.403 342.75 197.436C342.75 197.115 342.75 196.793 342.75 196.471C342.902 183.504 347.933 170.58 357.825 160.688L394.226 124.287L394.362 124.151L394.226 124.016L394.091 124.151L357.825 87.8859C337.719 67.7798 337.719 35.1899 357.825 15.0838C367.878 5.03076 381.056 0 394.235 0C400.011 0 405.787 0.9655 411.3 2.8965C415.586 4.39557 419.71 6.47902 423.555 9.14685L426.503 11.3573L551.823 105.29C564.383 114.708 564.383 133.552 551.815 142.962V142.97Z" fill="url(#paint0_linear_890_2340)"/>
<path d="M394.235 124.287L357.834 87.8861C337.728 67.78 337.728 35.1816 357.834 15.084C377.94 -5.02214 410.538 -5.02214 430.636 15.084C450.742 35.1901 450.742 67.7884 430.636 87.8861L394.235 124.287Z" fill="url(#paint1_linear_890_2340)"/>
<path d="M445.711 197.089C445.711 210.267 440.68 223.437 430.636 233.49C429.298 234.828 427.909 236.073 426.469 237.234C417.077 244.797 405.66 248.566 394.235 248.566C381.057 248.566 367.887 243.543 357.834 233.49C347.865 223.53 342.843 210.496 342.75 197.436C342.75 197.115 342.75 196.793 342.75 196.471C342.902 183.504 347.933 170.58 357.825 160.688L394.226 124.287L430.627 160.688C440.681 170.741 445.703 183.919 445.703 197.089H445.711Z" fill="url(#paint2_linear_890_2340)"/>
<path d="M82.0985 379.713L75.0284 365.69H19.8819L12.694 379.831C12.1048 381.009 11.28 381.48 9.98378 381.48H2.08886C0.321347 381.48 -0.50348 380.302 0.321362 378.652L40.6207 299.939C41.2099 298.76 42.0347 298.289 43.3309 298.289H51.5793C52.8755 298.289 53.7004 298.76 54.2895 299.939L94.4711 378.652C95.2959 380.302 94.4711 381.48 92.7036 381.48H84.8087C83.5125 381.48 82.6876 380.891 82.0985 379.713ZM70.0793 355.792L47.573 310.78L24.8309 355.792H70.0793Z" fill="#6365F7"/>
<path d="M109.2 379.117V300.639C109.2 299.108 110.025 298.283 111.557 298.283H154.213C178.958 298.283 186.618 307.356 186.618 326.563V328.448C186.618 346.359 178.958 356.257 154.213 356.257H120.748V379.117C120.748 380.649 119.923 381.474 118.391 381.474H111.557C110.025 381.474 109.2 380.649 109.2 379.117ZM153.506 345.181C169.767 345.181 175.07 340.939 175.07 328.331V326.563C175.07 312.659 169.767 309.477 153.506 309.477H120.748V345.181H153.506Z" fill="#6365F7"/>
<path d="M204.876 379.117V300.639C204.876 299.108 205.701 298.283 207.232 298.283H214.067C215.599 298.283 216.423 299.108 216.423 300.639V379.117C216.423 380.649 215.599 381.474 214.067 381.474H207.232C205.701 381.474 204.876 380.649 204.876 379.117Z" fill="#6365F7"/>
<path d="M272.513 379.117V300.639C272.513 299.108 273.338 298.283 274.869 298.283H338.618C340.15 298.283 340.974 299.108 340.974 300.639V307.12C340.974 308.652 340.15 309.477 338.618 309.477H284.06V333.633H321.06C322.592 333.633 323.417 334.458 323.417 335.99V342.117C323.417 343.649 322.592 344.474 321.06 344.474H284.06V379.117C284.06 380.649 283.236 381.474 281.704 381.474H274.869C273.338 381.474 272.513 380.649 272.513 379.117Z" fill="#0E0E26"/>
<path d="M357.118 352.84V300.639C357.118 299.108 357.943 298.283 359.475 298.283H366.309C367.841 298.283 368.666 299.108 368.666 300.639V353.194C368.666 366.509 373.261 370.28 385.045 370.28H410.497C422.28 370.28 426.758 366.509 426.758 353.194V300.639C426.758 299.108 427.583 298.283 429.115 298.283H436.067C437.599 298.283 438.424 299.108 438.424 300.639V352.84C438.424 371.104 430.647 381.474 410.497 381.474H385.045C364.777 381.474 357.118 371.104 357.118 352.84Z" fill="#0E0E26"/>
<path d="M484.968 379.117V309.477H456.57C455.038 309.477 454.213 308.652 454.213 307.12V300.639C454.213 299.108 455.038 298.283 456.57 298.283H525.032C526.564 298.283 527.389 299.108 527.389 300.639V307.12C527.389 308.652 526.564 309.477 525.032 309.477H496.634V379.117C496.634 380.649 495.809 381.474 494.277 381.474H487.325C485.793 381.474 484.968 380.649 484.968 379.117Z" fill="#0E0E26"/>
<path d="M543.178 352.84V300.639C543.178 299.108 544.003 298.283 545.535 298.283H552.369C553.901 298.283 554.726 299.108 554.726 300.639V353.194C554.726 366.509 559.322 370.28 571.105 370.28H596.557C608.341 370.28 612.819 366.509 612.819 353.194V300.639C612.819 299.108 613.643 298.283 615.175 298.283H622.127C623.659 298.283 624.484 299.108 624.484 300.639V352.84C624.484 371.104 616.707 381.474 596.557 381.474H571.105C550.838 381.474 543.178 371.104 543.178 352.84Z" fill="#0E0E26"/>
<path d="M704.847 355.55L720.991 378.646C722.051 380.178 721.344 381.474 719.459 381.474H711.328C710.15 381.474 709.207 381.002 708.5 379.942L692.71 356.729H657.242V379.117C657.242 380.649 656.417 381.474 654.886 381.474H648.051C646.519 381.474 645.695 380.649 645.695 379.117V300.639C645.695 299.108 646.519 298.283 648.051 298.283H690.707C715.452 298.283 723.701 307.356 723.701 327.034V328.448C723.701 343.531 718.988 352.604 704.847 355.55ZM712.035 327.152C712.035 312.659 706.615 309.477 690 309.477H657.242V345.652H690C706.497 345.652 712.035 342.588 712.035 328.331V327.152Z" fill="#0E0E26"/>
<path d="M741.965 379.117V300.639C741.965 299.108 742.79 298.283 744.322 298.283H809.956C811.488 298.283 812.312 299.108 812.312 300.639V307.12C812.312 308.652 811.488 309.477 809.956 309.477H753.513V333.633H791.927C793.459 333.633 794.284 334.458 794.284 335.99V342.117C794.284 343.649 793.459 344.474 791.927 344.474H753.513V370.28H809.956C811.488 370.28 812.312 371.104 812.312 372.636V379.117C812.312 380.649 811.488 381.474 809.956 381.474H744.322C742.79 381.474 741.965 380.649 741.965 379.117Z" fill="#0E0E26"/>
<path d="M824.921 355.786C824.921 354.254 825.745 353.429 827.277 353.429H834.112C835.643 353.429 836.468 354.254 836.468 355.786C837.058 366.745 841.182 370.28 852.847 370.28H875.354C888.198 370.28 892.558 367.334 892.558 357.789C892.558 348.245 888.198 346.713 877.003 345.888L851.198 343.767C833.051 342.353 825.51 337.286 825.51 321.85C825.51 306.413 832.815 298.283 854.144 298.283H874.882C894.561 298.283 902.102 306.295 902.809 323.971C902.809 325.502 901.984 326.327 900.453 326.327H893.618C892.086 326.327 891.261 325.502 891.261 323.971C890.672 313.012 886.548 309.477 874.882 309.477H854.261C841.182 309.477 836.94 312.305 836.94 321.967C836.94 330.923 841.182 332.69 852.376 333.633L878.182 335.636C896.21 337.05 903.988 342.471 903.988 357.789C903.988 373.108 896.682 381.474 875.354 381.474H852.847C833.169 381.474 825.628 373.461 824.921 355.786Z" fill="#0E0E26"/>
<defs>
<linearGradient id="paint0_linear_890_2340" x1="340.997" y1="28.3383" x2="480.554" y2="200.689" gradientUnits="userSpaceOnUse">
<stop stop-color="#B3FFFD"/>
<stop offset="0.33" stop-color="#38F9F9"/>
<stop offset="0.51" stop-color="#38F6F8"/>
<stop offset="0.61" stop-color="#3AEEF8"/>
<stop offset="0.69" stop-color="#3EE1F8"/>
<stop offset="0.76" stop-color="#44CDF8"/>
<stop offset="0.83" stop-color="#4BB4F8"/>
<stop offset="0.88" stop-color="#5496F7"/>
<stop offset="0.94" stop-color="#5F71F7"/>
<stop offset="0.98" stop-color="#6B48F7"/>
<stop offset="1" stop-color="#7039F7"/>
</linearGradient>
<linearGradient id="paint1_linear_890_2340" x1="352.761" y1="21.3597" x2="432.906" y2="86.0059" gradientUnits="userSpaceOnUse">
<stop stop-color="#AEFFFD"/>
<stop offset="0.05" stop-color="#92FDFC"/>
<stop offset="0.15" stop-color="#61FBFA"/>
<stop offset="0.23" stop-color="#43F9F9"/>
<stop offset="0.28" stop-color="#38F9F9"/>
<stop offset="0.39" stop-color="#39F5F8"/>
<stop offset="0.5" stop-color="#3CEAF8"/>
<stop offset="0.6" stop-color="#41D7F8"/>
<stop offset="0.7" stop-color="#49BDF8"/>
<stop offset="0.79" stop-color="#539BF8"/>
<stop offset="0.89" stop-color="#5F72F7"/>
<stop offset="0.98" stop-color="#6D42F7"/>
<stop offset="1" stop-color="#7039F7"/>
</linearGradient>
<linearGradient id="paint2_linear_890_2340" x1="430.636" y1="160.688" x2="357.825" y2="233.49" gradientUnits="userSpaceOnUse">
<stop stop-color="#AEFFFD"/>
<stop offset="0.06" stop-color="#92FDFC"/>
<stop offset="0.18" stop-color="#61FBFA"/>
<stop offset="0.27" stop-color="#43F9F9"/>
<stop offset="0.33" stop-color="#38F9F9"/>
<stop offset="0.43" stop-color="#39F5F8"/>
<stop offset="0.53" stop-color="#3CEAF8"/>
<stop offset="0.63" stop-color="#41D7F8"/>
<stop offset="0.72" stop-color="#49BDF8"/>
<stop offset="0.81" stop-color="#539BF8"/>
<stop offset="0.9" stop-color="#5F72F7"/>
<stop offset="0.99" stop-color="#6D42F7"/>
<stop offset="1" stop-color="#7039F7"/>
</linearGradient>
</defs>
</svg>
