<svg width="904" height="382" viewBox="0 0 904 382" fill="none" xmlns="http://www.w3.org/2000/svg">
<path d="M551.81 142.97L427.997 236.006C427.497 236.446 426.981 236.852 426.464 237.234C424.99 238.326 423.474 239.241 421.916 240.232C418.545 242.391 414.98 244.111 411.295 245.398C405.782 247.329 400.006 248.295 394.23 248.295C381.051 248.295 367.882 243.264 357.829 233.219C347.928 223.327 342.906 210.403 342.745 197.436C342.745 197.115 342.745 196.793 342.745 196.471C342.897 183.504 347.928 170.58 357.82 160.688L394.221 124.287L394.357 124.151L394.221 124.016L394.086 124.151L357.82 87.8859C337.714 67.7798 337.714 35.1899 357.82 15.0838C367.873 5.03076 381.051 0 394.23 0C400.006 0 405.782 0.9655 411.295 2.8965C415.581 4.39557 419.705 6.47902 423.55 9.14685L426.498 11.3573L551.818 105.29C564.378 114.708 564.378 133.552 551.81 142.962V142.97Z" fill="url(#paint0_linear_890_2339)"/>
<path d="M394.23 124.287L357.829 87.8861C337.723 67.78 337.723 35.1816 357.829 15.084C377.935 -5.02214 410.533 -5.02214 430.631 15.084C450.737 35.1901 450.737 67.7884 430.631 87.8861L394.23 124.287Z" fill="url(#paint1_linear_890_2339)"/>
<path d="M445.706 197.089C445.706 210.267 440.676 223.437 430.631 233.49C429.293 234.828 427.904 236.073 426.464 237.234C417.072 244.797 405.655 248.566 394.23 248.566C381.052 248.566 367.882 243.543 357.829 233.49C347.86 223.53 342.838 210.496 342.745 197.436C342.745 197.115 342.745 196.793 342.745 196.471C342.897 183.504 347.928 170.58 357.82 160.688L394.221 124.287L430.622 160.688C440.676 170.741 445.698 183.919 445.698 197.089H445.706Z" fill="url(#paint2_linear_890_2339)"/>
<path d="M82.0935 379.713L75.0234 365.69H19.8769L12.689 379.831C12.0998 381.009 11.275 381.48 9.97877 381.48H2.08386C0.316342 381.48 -0.508484 380.302 0.316357 378.652L40.6157 299.939C41.2049 298.76 42.0297 298.289 43.3259 298.289H51.5743C52.8705 298.289 53.6954 298.76 54.2845 299.939L94.4661 378.652C95.2909 380.302 94.4661 381.48 92.6986 381.48H84.8036C83.5075 381.48 82.6826 380.891 82.0935 379.713ZM70.0743 355.792L47.568 310.78L24.8259 355.792H70.0743Z" fill="#38F9F9"/>
<path d="M109.195 379.117V300.639C109.195 299.108 110.02 298.283 111.552 298.283H154.208C178.953 298.283 186.613 307.356 186.613 326.563V328.448C186.613 346.359 178.953 356.257 154.208 356.257H120.743V379.117C120.743 380.649 119.918 381.474 118.386 381.474H111.552C110.02 381.474 109.195 380.649 109.195 379.117ZM153.501 345.181C169.762 345.181 175.065 340.939 175.065 328.331V326.563C175.065 312.659 169.762 309.477 153.501 309.477H120.743V345.181H153.501Z" fill="#38F9F9"/>
<path d="M204.871 379.117V300.639C204.871 299.108 205.696 298.283 207.227 298.283H214.062C215.594 298.283 216.418 299.108 216.418 300.639V379.117C216.418 380.649 215.594 381.474 214.062 381.474H207.227C205.696 381.474 204.871 380.649 204.871 379.117Z" fill="#38F9F9"/>
<path d="M272.508 379.117V300.639C272.508 299.108 273.333 298.283 274.864 298.283H338.613C340.145 298.283 340.969 299.108 340.969 300.639V307.12C340.969 308.652 340.145 309.477 338.613 309.477H284.055V333.633H321.055C322.587 333.633 323.412 334.458 323.412 335.99V342.117C323.412 343.649 322.587 344.474 321.055 344.474H284.055V379.117C284.055 380.649 283.231 381.474 281.699 381.474H274.864C273.333 381.474 272.508 380.649 272.508 379.117Z" fill="white"/>
<path d="M357.113 352.84V300.639C357.113 299.108 357.938 298.283 359.47 298.283H366.304C367.836 298.283 368.661 299.108 368.661 300.639V353.194C368.661 366.509 373.256 370.28 385.04 370.28H410.492C422.275 370.28 426.753 366.509 426.753 353.194V300.639C426.753 299.108 427.578 298.283 429.11 298.283H436.062C437.594 298.283 438.419 299.108 438.419 300.639V352.84C438.419 371.104 430.642 381.474 410.492 381.474H385.04C364.772 381.474 357.113 371.104 357.113 352.84Z" fill="white"/>
<path d="M484.963 379.117V309.477H456.565C455.033 309.477 454.208 308.652 454.208 307.12V300.639C454.208 299.108 455.033 298.283 456.565 298.283H525.027C526.559 298.283 527.384 299.108 527.384 300.639V307.12C527.384 308.652 526.559 309.477 525.027 309.477H496.629V379.117C496.629 380.649 495.804 381.474 494.272 381.474H487.32C485.788 381.474 484.963 380.649 484.963 379.117Z" fill="white"/>
<path d="M543.173 352.84V300.639C543.173 299.108 543.998 298.283 545.53 298.283H552.364C553.896 298.283 554.721 299.108 554.721 300.639V353.194C554.721 366.509 559.317 370.28 571.1 370.28H596.552C608.336 370.28 612.814 366.509 612.814 353.194V300.639C612.814 299.108 613.638 298.283 615.17 298.283H622.122C623.654 298.283 624.479 299.108 624.479 300.639V352.84C624.479 371.104 616.702 381.474 596.552 381.474H571.1C550.833 381.474 543.173 371.104 543.173 352.84Z" fill="white"/>
<path d="M704.842 355.55L720.986 378.646C722.046 380.178 721.339 381.474 719.454 381.474H711.323C710.145 381.474 709.202 381.002 708.495 379.942L692.705 356.729H657.237V379.117C657.237 380.649 656.412 381.474 654.881 381.474H648.046C646.514 381.474 645.69 380.649 645.69 379.117V300.639C645.69 299.108 646.514 298.283 648.046 298.283H690.702C715.447 298.283 723.696 307.356 723.696 327.034V328.448C723.696 343.531 718.983 352.604 704.842 355.55ZM712.03 327.152C712.03 312.659 706.61 309.477 689.995 309.477H657.237V345.652H689.995C706.492 345.652 712.03 342.588 712.03 328.331V327.152Z" fill="white"/>
<path d="M741.96 379.117V300.639C741.96 299.108 742.785 298.283 744.317 298.283H809.951C811.483 298.283 812.307 299.108 812.307 300.639V307.12C812.307 308.652 811.483 309.477 809.951 309.477H753.508V333.633H791.922C793.454 333.633 794.279 334.458 794.279 335.99V342.117C794.279 343.649 793.454 344.474 791.922 344.474H753.508V370.28H809.951C811.483 370.28 812.307 371.104 812.307 372.636V379.117C812.307 380.649 811.483 381.474 809.951 381.474H744.317C742.785 381.474 741.96 380.649 741.96 379.117Z" fill="white"/>
<path d="M824.916 355.786C824.916 354.254 825.74 353.429 827.272 353.429H834.107C835.638 353.429 836.463 354.254 836.463 355.786C837.053 366.745 841.177 370.28 852.842 370.28H875.349C888.193 370.28 892.553 367.334 892.553 357.789C892.553 348.245 888.193 346.713 876.998 345.888L851.193 343.767C833.046 342.353 825.505 337.286 825.505 321.85C825.505 306.413 832.81 298.283 854.139 298.283H874.877C894.556 298.283 902.097 306.295 902.804 323.971C902.804 325.502 901.979 326.327 900.447 326.327H893.613C892.081 326.327 891.256 325.502 891.256 323.971C890.667 313.012 886.543 309.477 874.877 309.477H854.256C841.177 309.477 836.935 312.305 836.935 321.967C836.935 330.923 841.177 332.69 852.371 333.633L878.177 335.636C896.205 337.05 903.982 342.471 903.982 357.789C903.982 373.108 896.677 381.474 875.349 381.474H852.842C833.164 381.474 825.623 373.461 824.916 355.786Z" fill="white"/>
<defs>
<linearGradient id="paint0_linear_890_2339" x1="340.992" y1="28.3383" x2="480.549" y2="200.689" gradientUnits="userSpaceOnUse">
<stop stop-color="#B3FFFD"/>
<stop offset="0.33" stop-color="#38F9F9"/>
<stop offset="0.51" stop-color="#38F6F8"/>
<stop offset="0.61" stop-color="#3AEEF8"/>
<stop offset="0.69" stop-color="#3EE1F8"/>
<stop offset="0.76" stop-color="#44CDF8"/>
<stop offset="0.83" stop-color="#4BB4F8"/>
<stop offset="0.88" stop-color="#5496F7"/>
<stop offset="0.94" stop-color="#5F71F7"/>
<stop offset="0.98" stop-color="#6B48F7"/>
<stop offset="1" stop-color="#7039F7"/>
</linearGradient>
<linearGradient id="paint1_linear_890_2339" x1="352.756" y1="21.3597" x2="432.901" y2="86.0059" gradientUnits="userSpaceOnUse">
<stop stop-color="#AEFFFD"/>
<stop offset="0.05" stop-color="#92FDFC"/>
<stop offset="0.15" stop-color="#61FBFA"/>
<stop offset="0.23" stop-color="#43F9F9"/>
<stop offset="0.28" stop-color="#38F9F9"/>
<stop offset="0.39" stop-color="#39F5F8"/>
<stop offset="0.5" stop-color="#3CEAF8"/>
<stop offset="0.6" stop-color="#41D7F8"/>
<stop offset="0.7" stop-color="#49BDF8"/>
<stop offset="0.79" stop-color="#539BF8"/>
<stop offset="0.89" stop-color="#5F72F7"/>
<stop offset="0.98" stop-color="#6D42F7"/>
<stop offset="1" stop-color="#7039F7"/>
</linearGradient>
<linearGradient id="paint2_linear_890_2339" x1="430.631" y1="160.688" x2="357.82" y2="233.49" gradientUnits="userSpaceOnUse">
<stop stop-color="#AEFFFD"/>
<stop offset="0.06" stop-color="#92FDFC"/>
<stop offset="0.18" stop-color="#61FBFA"/>
<stop offset="0.27" stop-color="#43F9F9"/>
<stop offset="0.33" stop-color="#38F9F9"/>
<stop offset="0.43" stop-color="#39F5F8"/>
<stop offset="0.53" stop-color="#3CEAF8"/>
<stop offset="0.63" stop-color="#41D7F8"/>
<stop offset="0.72" stop-color="#49BDF8"/>
<stop offset="0.81" stop-color="#539BF8"/>
<stop offset="0.9" stop-color="#5F72F7"/>
<stop offset="0.99" stop-color="#6D42F7"/>
<stop offset="1" stop-color="#7039F7"/>
</linearGradient>
</defs>
</svg>
