<svg width="500" height="500" viewBox="0 0 500 500" fill="none" xmlns="http://www.w3.org/2000/svg">
<path d="M224.793 292.73C236.663 304.61 242.593 320.16 242.593 335.72C242.593 351.28 236.663 366.83 224.793 378.7C223.213 380.27 221.573 381.75 219.873 383.12C218.133 384.41 216.343 385.48 214.503 386.66C210.523 389.21 206.313 391.24 201.963 392.76C195.453 395.05 188.633 396.19 181.813 396.19C166.253 396.19 150.693 390.25 138.823 378.38C127.883 367.44 121.983 353.35 121.123 339.02C121.093 338.54 121.073 338.06 121.063 337.58C121.043 337.09 121.033 336.61 121.033 336.13C121.023 335.75 121.023 335.37 121.033 334.99C121.213 319.68 127.143 304.42 138.823 292.73L178.983 252.59L181.803 249.76L184.633 252.58L224.783 292.73H224.793Z" fill="white"/>
<path d="M125.473 186.67C119.533 172.03 119.533 155.56 125.473 140.92C125.843 140.01 126.233 139.1 126.653 138.2C128.323 134.6 130.363 131.13 132.773 127.85C133.673 126.62 134.633 125.42 135.643 124.24C136.653 123.07 137.713 121.92 138.823 120.81C139.933 119.7 141.083 118.64 142.253 117.63C151.343 111.14 153.083 110.16 157.563 108.03C157.963 107.86 158.363 107.69 158.773 107.53C158.983 107.45 159.193 107.37 159.403 107.28C159.423 107.27 159.443 107.26 159.463 107.26C159.643 107.2 159.823 107.13 159.993 107.06C160.243 106.96 160.483 106.87 160.723 106.78C160.963 106.69 161.213 106.6 161.463 106.51C161.963 106.33 162.473 106.16 162.983 105.99C163.483 105.82 163.993 105.66 164.503 105.51C164.973 105.37 165.443 105.24 165.913 105.11C167.063 104.8 168.223 104.52 169.383 104.28C170.543 104.04 171.713 103.84 172.883 103.66C173.433 103.58 173.983 103.51 174.533 103.44C176.953 103.15 179.373 103.01 181.813 103.01H182.453C182.673 103 182.893 103.01 183.103 103.01C183.163 103.01 183.213 103.02 183.273 103.02C183.643 103.02 184.013 103.04 184.383 103.05C184.493 103.06 184.613 103.06 184.733 103.07C185.043 103.08 185.353 103.1 185.653 103.12C185.833 103.13 186.013 103.14 186.183 103.16C186.393 103.17 186.593 103.19 186.793 103.2C186.893 103.21 186.973 103.21 187.063 103.22C187.253 103.24 187.453 103.25 187.643 103.28C187.913 103.3 188.193 103.33 188.463 103.36C189.263 103.45 190.063 103.55 190.863 103.67C191.233 103.72 191.613 103.78 191.983 103.84L192.013 103.85C193.163 104.05 194.303 104.28 195.443 104.54C195.593 104.57 195.753 104.61 195.913 104.65C196.293 104.74 196.663 104.83 197.033 104.93C197.443 105.03 197.863 105.14 198.273 105.26C198.663 105.37 199.043 105.48 199.433 105.6C199.463 105.6 199.483 105.61 199.513 105.62C199.903 105.74 200.303 105.86 200.693 105.99C200.713 105.99 200.723 106 200.743 106.01C200.983 106.09 201.233 106.17 201.483 106.25C201.523 106.27 201.553 106.28 201.593 106.29C201.703 106.32 201.813 106.36 201.923 106.4C201.923 106.4 201.953 106.41 201.973 106.42C202.023 106.44 202.083 106.46 202.133 106.48C202.183 106.5 202.243 106.52 202.293 106.54C202.303 106.54 202.313 106.54 202.323 106.54C202.393 106.56 202.463 106.58 202.523 106.61C202.593 106.64 202.653 106.66 202.723 106.69C203.103 106.82 203.483 106.96 203.863 107.11C204.093 107.2 204.313 107.29 204.543 107.38C204.843 107.51 205.153 107.63 205.453 107.76C205.543 107.79 205.623 107.83 205.713 107.86C206.733 108.3 207.743 108.76 208.753 109.26C208.803 109.29 208.853 109.31 208.913 109.34C208.973 109.37 209.043 109.4 209.113 109.44C209.393 109.58 209.673 109.73 209.963 109.88C210.003 109.89 210.043 109.91 210.083 109.94C210.273 110.04 210.473 110.15 210.673 110.26C211.353 110.62 212.023 111 212.703 111.4C212.753 111.43 212.803 111.46 212.863 111.49C212.983 111.57 213.103 111.64 213.233 111.72C213.603 111.94 213.963 112.16 214.323 112.39C214.353 112.41 214.373 112.42 214.393 112.44C214.583 112.56 214.773 112.68 214.963 112.8C215.063 112.86 215.153 112.93 215.263 113C215.653 113.26 216.043 113.52 216.433 113.79C216.463 113.81 216.493 113.83 216.523 113.85L219.833 116.34C219.833 116.34 219.913 116.4 219.963 116.44C220.433 116.82 220.903 117.21 221.373 117.61C222.543 118.62 223.693 119.68 224.803 120.79C236.673 132.66 242.603 148.22 242.603 163.78C242.603 179.34 236.673 194.89 224.803 206.76L181.983 249.58L181.823 249.42L181.663 249.58L178.993 246.92L138.833 206.76C137.723 205.64 136.663 204.5 135.653 203.33C134.643 202.15 133.683 200.94 132.783 199.71C130.383 196.43 128.343 192.97 126.663 189.37C126.253 188.47 125.863 187.56 125.483 186.65L125.473 186.67Z" fill="white"/>
<path d="M367.873 271.81L236.443 370.57C243.053 360.26 246.593 348.26 246.593 335.72C246.593 318.41 239.853 302.15 227.623 289.91L187.463 249.75L227.613 209.6C249.563 187.65 252.443 153.75 236.253 128.67L367.883 227.34C382.713 238.46 382.713 260.7 367.883 271.81H367.873Z" fill="white"/>
<path d="M242.593 163.8C242.593 179.35 236.663 194.91 224.793 206.78L181.973 249.6L181.813 249.76L178.993 246.94L138.833 206.78C137.713 205.66 136.653 204.52 135.653 203.35C134.643 202.17 133.683 200.96 132.783 199.73C130.363 196.45 128.333 192.99 126.663 189.39C126.253 188.49 125.863 187.58 125.483 186.67C119.543 172.03 119.543 155.56 125.483 140.92C125.853 140.01 126.243 139.1 126.663 138.2C128.333 134.6 130.373 131.13 132.783 127.85C133.683 126.62 134.643 125.42 135.653 124.24C136.663 123.07 137.723 121.92 138.833 120.81C139.943 119.7 141.093 118.64 142.263 117.63C151.353 111.14 153.093 110.16 157.573 108.03C157.973 107.86 158.373 107.69 158.783 107.53C158.993 107.45 159.203 107.37 159.413 107.28C159.433 107.27 159.453 107.26 159.473 107.26C159.653 107.2 159.833 107.13 160.003 107.06C160.253 106.96 160.493 106.87 160.733 106.78C160.973 106.69 161.223 106.6 161.473 106.51C161.973 106.33 162.483 106.16 162.993 105.99C163.493 105.82 164.003 105.66 164.513 105.51C164.983 105.37 165.453 105.24 165.923 105.11C167.073 104.8 168.233 104.52 169.393 104.28C170.553 104.04 171.713 103.83 172.893 103.66C173.443 103.58 173.993 103.51 174.543 103.44C176.963 103.14 179.383 103 181.813 103C182.033 103 182.243 103 182.453 103.01C182.673 103 182.893 103.01 183.103 103.01C183.533 103.01 183.953 103.03 184.383 103.05C184.803 103.06 185.233 103.08 185.653 103.12C186.033 103.13 186.413 103.16 186.793 103.2C186.893 103.21 186.973 103.21 187.063 103.22C187.253 103.24 187.453 103.25 187.643 103.28C187.913 103.3 188.193 103.33 188.463 103.36C189.263 103.45 190.063 103.55 190.863 103.67C191.233 103.72 191.613 103.78 191.983 103.84C191.993 103.84 192.003 103.85 192.013 103.85C193.163 104.05 194.303 104.28 195.443 104.54C195.593 104.57 195.753 104.61 195.913 104.65C196.293 104.74 196.663 104.83 197.033 104.93C197.443 105.03 197.863 105.14 198.273 105.26C198.663 105.37 199.043 105.48 199.433 105.6C199.463 105.6 199.483 105.61 199.513 105.62C199.903 105.74 200.303 105.86 200.693 105.99C200.713 105.99 200.723 106 200.743 106.01C200.983 106.09 201.233 106.17 201.483 106.25C201.523 106.27 201.553 106.28 201.593 106.29C201.703 106.32 201.813 106.36 201.923 106.4C201.943 106.41 201.963 106.41 201.973 106.42C202.023 106.44 202.083 106.46 202.133 106.48C202.183 106.5 202.243 106.52 202.293 106.54C202.303 106.54 202.313 106.54 202.323 106.54C202.393 106.56 202.463 106.58 202.523 106.61C202.973 106.76 203.423 106.93 203.863 107.11C204.093 107.2 204.313 107.29 204.543 107.38C204.843 107.51 205.153 107.63 205.453 107.76C205.543 107.79 205.623 107.83 205.713 107.86C206.733 108.3 207.743 108.76 208.753 109.26C208.803 109.29 208.853 109.31 208.913 109.34C208.973 109.37 209.043 109.4 209.113 109.44C209.393 109.58 209.673 109.73 209.963 109.88C210.003 109.89 210.043 109.91 210.083 109.94C210.273 110.04 210.473 110.15 210.673 110.26C211.353 110.62 212.023 111 212.703 111.4C212.753 111.43 212.803 111.46 212.863 111.49C212.983 111.57 213.103 111.64 213.233 111.72C213.603 111.94 213.963 112.16 214.323 112.39C214.353 112.41 214.373 112.42 214.393 112.44C214.583 112.56 214.773 112.68 214.963 112.8C215.063 112.86 215.153 112.93 215.263 113C215.653 113.26 216.043 113.52 216.433 113.79C216.463 113.81 216.493 113.83 216.523 113.85C217.653 114.64 218.753 115.46 219.833 116.34C219.873 116.36 219.913 116.4 219.963 116.44C220.433 116.82 220.903 117.21 221.373 117.61C222.543 118.62 223.693 119.68 224.803 120.79C236.673 132.66 242.603 148.22 242.603 163.78L242.593 163.8Z" fill="white"/>
<path d="M242.593 335.72C242.593 351.27 236.663 366.83 224.793 378.7C223.213 380.27 221.573 381.75 219.873 383.12C208.783 392.04 195.293 396.5 181.813 396.5C166.253 396.5 150.693 390.57 138.823 378.7C138.113 377.99 137.423 377.26 136.753 376.52C135.083 374.68 133.543 372.75 132.133 370.76C131.863 370.39 131.603 370.01 131.353 369.63C130.503 368.38 129.713 367.09 128.963 365.78C128.743 365.39 128.533 365.01 128.323 364.61C128.093 364.19 127.873 363.77 127.653 363.34C127.433 362.92 127.223 362.49 127.013 362.06C126.813 361.63 126.613 361.2 126.413 360.77C126.223 360.33 126.023 359.9 125.843 359.46C125.663 359.02 125.483 358.59 125.303 358.15C125.143 357.75 124.993 357.34 124.843 356.94C124.633 356.39 124.433 355.83 124.253 355.27C124.123 354.9 123.993 354.52 123.883 354.15C123.753 353.74 123.623 353.33 123.503 352.91C123.393 352.55 123.293 352.19 123.193 351.82C123.113 351.53 123.033 351.23 122.963 350.94C122.883 350.65 122.813 350.36 122.743 350.07C122.513 349.12 122.303 348.16 122.123 347.2C122.043 346.78 121.963 346.36 121.893 345.94C121.813 345.48 121.743 345.02 121.673 344.55C121.543 343.63 121.423 342.7 121.333 341.77C121.283 341.31 121.243 340.84 121.213 340.38C121.173 339.92 121.143 339.47 121.123 339.02C121.093 338.54 121.073 338.06 121.063 337.58C121.043 337.09 121.033 336.61 121.033 336.13C121.023 335.75 121.023 335.37 121.033 334.99C121.213 319.68 127.143 304.42 138.823 292.73L178.983 252.59L181.803 249.76L184.633 252.58L224.783 292.73C236.653 304.61 242.583 320.16 242.583 335.72H242.593Z" fill="white"/>
</svg>
