<svg width="500" height="500" viewBox="0 0 500 500" fill="none" xmlns="http://www.w3.org/2000/svg">
<rect width="500" height="500" transform="translate(-0.00500488)" fill="white"/>
<path d="M367.877 272.065L221.668 381.93C221.078 382.45 220.468 382.93 219.858 383.38C218.118 384.67 216.327 385.75 214.487 386.92C210.507 389.471 206.296 391.501 201.946 393.021C195.435 395.302 188.614 396.442 181.793 396.442C166.231 396.442 150.679 390.501 138.807 378.639C127.116 366.958 121.185 351.696 120.995 336.384C120.995 336.004 120.995 335.624 120.995 335.244C121.175 319.932 127.116 304.67 138.797 292.988L181.783 250.003L181.943 249.843L181.783 249.682L181.623 249.843L138.797 207.017C115.054 183.274 115.054 144.789 138.797 121.046C150.669 109.174 166.231 103.243 181.783 103.243C188.604 103.243 195.425 104.383 201.936 106.664C206.996 108.434 211.867 110.894 216.407 114.045L219.888 116.655L367.877 227.58C382.709 238.701 382.709 260.954 367.867 272.065H367.877Z" fill="url(#paint0_linear_890_1486)"/>
<path d="M181.793 250.003L138.807 207.017C115.064 183.274 115.064 144.779 138.807 121.046C162.55 97.3026 201.045 97.3026 224.779 121.046C248.522 144.789 248.522 183.284 224.779 207.017L181.793 250.003Z" fill="url(#paint1_linear_890_1486)"/>
<path d="M242.581 335.974C242.581 351.536 236.64 367.088 224.779 378.959C223.198 380.54 221.558 382.01 219.858 383.38C208.766 392.311 195.285 396.762 181.793 396.762C166.231 396.762 150.679 390.831 138.807 378.959C127.036 367.198 121.105 351.806 120.995 336.384C120.995 336.004 120.995 335.624 120.995 335.244C121.175 319.932 127.116 304.67 138.797 292.988L181.783 250.003L224.769 292.988C236.64 304.86 242.571 320.422 242.571 335.974H242.581Z" fill="url(#paint2_linear_890_1486)"/>
<defs>
<linearGradient id="paint0_linear_890_1486" x1="118.925" y1="136.708" x2="283.726" y2="340.224" gradientUnits="userSpaceOnUse">
<stop stop-color="#B3FFFD"/>
<stop offset="0.33" stop-color="#38F9F9"/>
<stop offset="0.51" stop-color="#38F6F8"/>
<stop offset="0.61" stop-color="#3AEEF8"/>
<stop offset="0.69" stop-color="#3EE1F8"/>
<stop offset="0.76" stop-color="#44CDF8"/>
<stop offset="0.83" stop-color="#4BB4F8"/>
<stop offset="0.88" stop-color="#5496F7"/>
<stop offset="0.94" stop-color="#5F71F7"/>
<stop offset="0.98" stop-color="#6B48F7"/>
<stop offset="1" stop-color="#7039F7"/>
</linearGradient>
<linearGradient id="paint1_linear_890_1486" x1="132.816" y1="128.457" x2="227.459" y2="204.807" gradientUnits="userSpaceOnUse">
<stop stop-color="#AEFFFD"/>
<stop offset="0.05" stop-color="#92FDFC"/>
<stop offset="0.15" stop-color="#61FBFA"/>
<stop offset="0.23" stop-color="#43F9F9"/>
<stop offset="0.28" stop-color="#38F9F9"/>
<stop offset="0.39" stop-color="#39F5F8"/>
<stop offset="0.5" stop-color="#3CEAF8"/>
<stop offset="0.6" stop-color="#41D7F8"/>
<stop offset="0.7" stop-color="#49BDF8"/>
<stop offset="0.79" stop-color="#539BF8"/>
<stop offset="0.89" stop-color="#5F72F7"/>
<stop offset="0.98" stop-color="#6D42F7"/>
<stop offset="1" stop-color="#7039F7"/>
</linearGradient>
<linearGradient id="paint2_linear_890_1486" x1="224.779" y1="292.988" x2="138.797" y2="378.959" gradientUnits="userSpaceOnUse">
<stop stop-color="#AEFFFD"/>
<stop offset="0.06" stop-color="#92FDFC"/>
<stop offset="0.18" stop-color="#61FBFA"/>
<stop offset="0.27" stop-color="#43F9F9"/>
<stop offset="0.33" stop-color="#38F9F9"/>
<stop offset="0.43" stop-color="#39F5F8"/>
<stop offset="0.53" stop-color="#3CEAF8"/>
<stop offset="0.63" stop-color="#41D7F8"/>
<stop offset="0.72" stop-color="#49BDF8"/>
<stop offset="0.81" stop-color="#539BF8"/>
<stop offset="0.9" stop-color="#5F72F7"/>
<stop offset="0.99" stop-color="#6D42F7"/>
<stop offset="1" stop-color="#7039F7"/>
</linearGradient>
</defs>
</svg>
